<svg xmlns="http://www.w3.org/2000/svg" width="312" height="81" viewBox="0 0 312 81">
  <g id="Grupo_1101323" data-name="Grupo 1101323" transform="translate(-1940 6785)">
    <rect id="Rectángulo_403185" data-name="Rectángulo 403185" width="312" height="81" rx="7" transform="translate(1940 -6785)" fill="#595959"/>
    <path id="Trazado_915202" data-name="Trazado 915202" d="M1.582,34.476V3.684H23.847V7.317H5.657v9.431H22.692v3.613H5.657V30.843h18.9v3.634Zm25.6,0,8.15-11.595L27.8,12.169h4.726l3.424,5.23q.966,1.491,1.554,2.5.924-1.386,1.7-2.458l3.76-5.272h4.516l-7.709,10.5,8.3,11.8H43.423l-4.579-6.932-1.218-1.869-5.86,8.8Zm24.029,8.549V12.169h3.445v2.9a8.491,8.491,0,0,1,2.752-2.552,7.561,7.561,0,0,1,3.718-.851,8.815,8.815,0,0,1,5.041,1.47,9.024,9.024,0,0,1,3.3,4.148,15.147,15.147,0,0,1,1.113,5.871,14.912,14.912,0,0,1-1.229,6.165,9.263,9.263,0,0,1-3.571,4.2,9.168,9.168,0,0,1-4.926,1.46,7.115,7.115,0,0,1-3.392-.8A7.725,7.725,0,0,1,55,32.166V43.025ZM54.64,23.449q0,4.306,1.743,6.364a5.346,5.346,0,0,0,4.222,2.058,5.466,5.466,0,0,0,4.316-2.132q1.8-2.132,1.8-6.606,0-4.264-1.754-6.385a5.28,5.28,0,0,0-4.19-2.121A5.445,5.445,0,0,0,56.5,16.885Q54.64,19.143,54.64,23.449ZM89.7,31.725a14.079,14.079,0,0,1-4.043,2.521,11.684,11.684,0,0,1-4.169.735,8.11,8.11,0,0,1-5.65-1.8,5.928,5.928,0,0,1-1.974-4.59A6.1,6.1,0,0,1,74.6,25.6a6.173,6.173,0,0,1,1.953-2.174,9.185,9.185,0,0,1,2.72-1.239,27.017,27.017,0,0,1,3.361-.567,34.558,34.558,0,0,0,6.743-1.3q.021-.777.021-.987a4.174,4.174,0,0,0-1.071-3.256A6.327,6.327,0,0,0,84.025,14.8a6.677,6.677,0,0,0-3.938.935,5.711,5.711,0,0,0-1.88,3.308l-3.7-.5A9.16,9.16,0,0,1,76.17,14.7a7.273,7.273,0,0,1,3.34-2.248,14.9,14.9,0,0,1,5.062-.788,13.4,13.4,0,0,1,4.642.672,6.116,6.116,0,0,1,2.626,1.691A5.947,5.947,0,0,1,93.015,16.6a21.288,21.288,0,0,1,.189,3.487v5.041a53.506,53.506,0,0,0,.242,6.669,8.414,8.414,0,0,0,.956,2.678H90.453A8.016,8.016,0,0,1,89.7,31.725Zm-.315-8.444a27.739,27.739,0,0,1-6.175,1.428,14.284,14.284,0,0,0-3.3.756,3.287,3.287,0,0,0-1.491,1.229,3.342,3.342,0,0,0,.62,4.316,4.925,4.925,0,0,0,3.35,1.008,7.8,7.8,0,0,0,3.886-.956,5.885,5.885,0,0,0,2.5-2.615,9.133,9.133,0,0,0,.609-3.781Zm9.683,11.2V12.169h3.4v3.172a8.019,8.019,0,0,1,7.1-3.676,9.314,9.314,0,0,1,3.707.725,5.831,5.831,0,0,1,2.531,1.9,7.3,7.3,0,0,1,1.176,2.794,21.649,21.649,0,0,1,.21,3.676V34.476h-3.781V20.907a10.186,10.186,0,0,0-.441-3.455,3.634,3.634,0,0,0-1.565-1.827,4.978,4.978,0,0,0-2.636-.683,6.126,6.126,0,0,0-4.169,1.533q-1.754,1.533-1.754,5.818V34.476Zm38.4,0V31.662a6.938,6.938,0,0,1-6.238,3.319,8.748,8.748,0,0,1-4.9-1.47,9.669,9.669,0,0,1-3.466-4.106,14.193,14.193,0,0,1-1.229-6.06,15.861,15.861,0,0,1,1.113-6.06,8.78,8.78,0,0,1,3.34-4.169,8.929,8.929,0,0,1,4.978-1.449,7.439,7.439,0,0,1,6.154,3.067V3.684h3.76V34.476ZM125.51,23.344q0,4.285,1.806,6.406a5.447,5.447,0,0,0,4.264,2.121,5.347,5.347,0,0,0,4.211-2.027q1.733-2.027,1.733-6.186,0-4.579-1.764-6.722a5.427,5.427,0,0,0-4.348-2.142,5.239,5.239,0,0,0-4.211,2.058Q125.51,18.912,125.51,23.344ZM146.935,8.032V3.684h3.781V8.032Zm0,26.445V12.169h3.781V34.476Zm9.494,0V12.169h3.4v3.382a9.228,9.228,0,0,1,2.405-3.13,4.2,4.2,0,0,1,2.426-.756,7.375,7.375,0,0,1,3.886,1.218l-1.3,3.508a5.41,5.41,0,0,0-2.773-.819,3.6,3.6,0,0,0-2.227.746,4.039,4.039,0,0,0-1.407,2.069,14.727,14.727,0,0,0-.63,4.411V34.476Z" transform="translate(2011.418 -6767.684)" fill="#707070"/>
  </g>
</svg>
