<svg xmlns="http://www.w3.org/2000/svg" width="50" height="50" viewBox="0 0 50 50">
  <g id="Grupo_1100483" data-name="Grupo 1100483" transform="translate(-179.73 -2044)">
    <rect id="Rectángulo_402599" data-name="Rectángulo 402599" width="50" height="50" transform="translate(179.73 2044)" fill="#ffc7b8"/>
    <path id="Trazado_901025" data-name="Trazado 901025" d="M36.289,32.022h-.711v-19.2a2.135,2.135,0,0,0-2.133-2.133H25.068L21.6,5.324a0,0,0,0,1,0,0,.663.663,0,0,0-.1-.121.311.311,0,0,0-.036-.028.465.465,0,0,0-.1-.068.265.265,0,0,0-.043-.025.59.59,0,0,0-.11-.043.2.2,0,0,0-.043-.014.638.638,0,0,0-.327,0,.2.2,0,0,0-.043.014.59.59,0,0,0-.11.043.265.265,0,0,0-.043.025.465.465,0,0,0-.1.068.249.249,0,0,0-.036.028.664.664,0,0,0-.1.121,0,0,0,0,1,0,0l-3.47,5.365H8.556a2.135,2.135,0,0,0-2.133,2.133v19.2H5.711A.713.713,0,0,0,5,32.733v2.133A2.135,2.135,0,0,0,7.133,37H34.867A2.135,2.135,0,0,0,37,34.867V32.733a.713.713,0,0,0-.711-.711ZM33.444,12.111a.713.713,0,0,1,.711.711v1.422H27.368l-1.38-2.133Zm-4.025,5.3-1.131-1.746h5.867v12.8H25.978V25.775l3.492-7.68a.718.718,0,0,0-.05-.683ZM21,18.156a1.067,1.067,0,1,1-1.067,1.067A1.07,1.07,0,0,1,21,18.156ZM20.289,8.118v8.718a2.489,2.489,0,1,0,1.422,0V8.118l6.3,9.742-3.207,7.051H17.192L13.985,17.86Zm4.267,18.215v2.133H17.444V26.333ZM7.844,12.822a.713.713,0,0,1,.711-.711h7.456l-1.38,2.133H7.844Zm0,2.844h5.867L12.58,17.412a.718.718,0,0,0-.05.683l3.492,7.68v2.692H7.844Zm0,14.222H34.156v2.133H7.844Zm27.733,4.978a.713.713,0,0,1-.711.711H7.133a.713.713,0,0,1-.711-.711V33.444H35.578Z" transform="translate(183.73 2048)" fill="#4c4e7b"/>
  </g>
</svg>
