<svg xmlns="http://www.w3.org/2000/svg" width="295" height="78.089" viewBox="0 0 295 78.089">
  <g id="Grupo_1101309" data-name="Grupo 1101309" transform="translate(-180.051 -1858)">
    <rect id="Rectángulo_402972" data-name="Rectángulo 402972" width="295" height="39" transform="translate(180.051 1881)" fill="#ffd69b"/>
    <g id="rgb" transform="translate(288.013 1858)">
      <path id="Trazado_912286" data-name="Trazado 912286" d="M207.786,175.326a24.321,24.321,0,0,0-23.832,42.263,24.074,24.074,0,0,0,13.419,4.035,24.321,24.321,0,0,0,10.413-46.3Z" transform="translate(-144.878 -144.851)" fill="#80aaff"/>
      <path id="Trazado_912287" data-name="Trazado 912287" d="M56.186,192.457A24.319,24.319,0,1,0,45.773,217.6h0A24.321,24.321,0,0,0,56.186,192.457Z" transform="translate(-6.698 -144.86)" fill="#befa91"/>
      <path id="Trazado_912288" data-name="Trazado 912288" d="M33.9,178.167c-11.814,2.5-20.495,14.3-19.494,26.338a2.6,2.6,0,0,1-5.035,1.14,24.343,24.343,0,0,1,24.107-32.619A2.6,2.6,0,0,1,33.9,178.167Z" transform="translate(-6.564 -144.854)" fill="#daffbf"/>
      <path id="Trazado_912289" data-name="Trazado 912289" d="M114.8,8a24.319,24.319,0,1,0,23.832,29.174A24.33,24.33,0,0,0,114.8,8Z" transform="translate(-75.727 -6.698)" fill="#ff6d7a"/>
      <path id="Trazado_912290" data-name="Trazado 912290" d="M121.951,14.378c-14.387.541-25.713,14.707-23.069,28.865a2.6,2.6,0,0,1-4.756,1.88A24.336,24.336,0,0,1,122.731,9.317a2.6,2.6,0,0,1-.781,5.061Z" transform="translate(-75.727 -6.698)" fill="#ff8c95"/>
      <path id="Trazado_912291" data-name="Trazado 912291" d="M194.331,292.621a24.321,24.321,0,0,1-10.412,25.14h0A24.321,24.321,0,0,1,173.5,292.619,24.347,24.347,0,0,0,194.331,292.621Z" transform="translate(-144.843 -245.023)" fill="#9cbcff"/>
      <path id="Trazado_912292" data-name="Trazado 912292" d="M263.869,175.326a24.361,24.361,0,0,1-13.419,17.123,24.328,24.328,0,0,0-10.413-15.423A24.335,24.335,0,0,1,263.869,175.326Z" transform="translate(-200.962 -144.851)" fill="#c0b3ff"/>
      <path id="Trazado_912293" data-name="Trazado 912293" d="M117.349,177.026a24.327,24.327,0,0,0-10.413,15.421,24.339,24.339,0,0,1-13.419-17.121A24.335,24.335,0,0,1,117.349,177.026Z" transform="translate(-78.274 -144.851)" fill="#ffe773"/>
      <path id="Trazado_912294" data-name="Trazado 912294" d="M186.43,197.809a24.328,24.328,0,0,1,10.413,15.423,24.346,24.346,0,0,1-20.826,0A24.327,24.327,0,0,1,186.43,197.809Z" transform="translate(-147.355 -165.634)" fill="#eef7ff"/>
      <g id="Grupo_1101308" data-name="Grupo 1101308" transform="translate(0.038 0)">
        <path id="Trazado_912295" data-name="Trazado 912295" d="M272.878,258.124a1.3,1.3,0,0,0-1.792-.42q-.4.25-.814.481a25.451,25.451,0,0,0-1.294-3.624,1.3,1.3,0,0,0-2.378,1.058,22.826,22.826,0,0,1,1.288,3.736,22.811,22.811,0,0,1-4.193,1.3,1.3,1.3,0,1,0,.53,2.548,25.426,25.426,0,0,0,4.158-1.244,23.442,23.442,0,0,1,.037,5.688,1.3,1.3,0,0,0,2.585.3,26,26,0,0,0-.158-7.117q.819-.429,1.61-.918a1.3,1.3,0,0,0,.42-1.792Z" transform="translate(-219.942 -212.508)"/>
        <path id="Trazado_912296" data-name="Trazado 912296" d="M85.554,37.751a1.3,1.3,0,0,0,2.291-1.234A22.853,22.853,0,0,1,85.8,31.227a22.816,22.816,0,0,1,7.734-1.757,1.3,1.3,0,0,0-.13-2.6,25.412,25.412,0,0,0-8.1,1.749A23.024,23.024,0,0,1,130.914,22.3a1.3,1.3,0,0,0,2.576-.373,25.626,25.626,0,1,0-47.935,15.82Z" transform="translate(-69.086 0)"/>
        <path id="Trazado_912297" data-name="Trazado 912297" d="M155.038,262.877a1.3,1.3,0,1,0,.672-2.514,22.878,22.878,0,0,1-2.95-1.009,22.836,22.836,0,0,1,1.287-3.735,1.3,1.3,0,0,0-2.378-1.058,25.482,25.482,0,0,0-1.294,3.623q-.966-.545-1.883-1.185A1.3,1.3,0,0,0,147,259.133a25.667,25.667,0,0,0,2.8,1.7,25.99,25.99,0,0,0-.158,7.117,1.3,1.3,0,0,0,2.585-.3,23.444,23.444,0,0,1,.038-5.689A25.577,25.577,0,0,0,155.038,262.877Z" transform="translate(-122.632 -212.509)"/>
        <path id="Trazado_912298" data-name="Trazado 912298" d="M195.889,179.856a23.132,23.132,0,0,1,3.385-2.97,23.147,23.147,0,0,1,3.384,2.97,1.3,1.3,0,1,0,1.9-1.779,25.761,25.761,0,0,0-2.928-2.674,22.889,22.889,0,0,1,4.625-1.92,1.3,1.3,0,0,0-.727-2.5,25.521,25.521,0,0,0-6.253,2.777,25.523,25.523,0,0,0-6.253-2.777,1.3,1.3,0,0,0-.727,2.5,22.894,22.894,0,0,1,4.625,1.92,25.767,25.767,0,0,0-2.929,2.675,1.3,1.3,0,1,0,1.9,1.779Z" transform="translate(-160.237 -143.128)"/>
        <path id="Trazado_912299" data-name="Trazado 912299" d="M48.113,237.431a1.3,1.3,0,0,0-1.739.6,23.1,23.1,0,0,1-7.3,8.662,23.1,23.1,0,0,1-7.3-8.661,1.3,1.3,0,1,0-2.341,1.136,25.7,25.7,0,0,0,7.284,9.008A23.016,23.016,0,0,1,9.251,211.852,1.3,1.3,0,0,0,7.4,210.026a25.62,25.62,0,1,0,41.319,29.143,1.3,1.3,0,0,0-.6-1.739Z" transform="translate(-0.038 -175.539)"/>
        <path id="Trazado_912300" data-name="Trazado 912300" d="M304.743,176.9A25.6,25.6,0,0,0,284.5,165.19a1.3,1.3,0,0,0-.13,2.6,22.82,22.82,0,0,1,7.737,1.759,22.818,22.818,0,0,1-2.687,6.4,1.3,1.3,0,1,0,2.219,1.36,25.415,25.415,0,0,0,2.852-6.586A23.022,23.022,0,0,1,277.2,213a1.3,1.3,0,0,0-.677,2.513A25.629,25.629,0,0,0,304.743,176.9Z" transform="translate(-230.746 -138.32)"/>
      </g>
    </g>
  </g>
</svg>
