<svg xmlns="http://www.w3.org/2000/svg" width="190" height="87.121" viewBox="0 0 190 87.121">
  <g id="Grupo_1101627" data-name="Grupo 1101627" transform="translate(-180.051 -8852)">
    <rect id="Rectángulo_403092" data-name="Rectángulo 403092" width="190" height="55" transform="translate(180.051 8868)" fill="#ffc7b8"/>
    <g id="dibujo-digital" transform="translate(230.051 8841.174)">
      <path id="Trazado_915935" data-name="Trazado 915935" d="M94.7,129.242H76.377L62.951,142.668a4.441,4.441,0,0,1-1.531,1l-5.907,2.3a.355.355,0,0,1-.46-.46l2.3-5.907a4.443,4.443,0,0,1,1-1.531l8.824-8.824H8.6l-1.1.178v50.062a2.665,2.665,0,0,0,2.665,2.665H23.4v-8.587a.888.888,0,0,1,.888-.888H79.014a.888.888,0,0,1,.888.888v8.587H93.139a2.665,2.665,0,0,0,2.665-2.665V129.42Z" transform="translate(-6.167 -97.377)" fill="#eaf6ff"/>
      <path id="Trazado_915936" data-name="Trazado 915936" d="M16.473,180.3v-2.032H13.085a.888.888,0,0,1-.888-.888V135.828a.888.888,0,0,1,.888-.888h3.387v-4.7H7.5V180.3a2.665,2.665,0,0,0,2.665,2.665h8.973A2.665,2.665,0,0,1,16.473,180.3Z" transform="translate(-6.167 -98.2)" fill="#d8ecfe"/>
      <g id="Grupo_1101595" data-name="Grupo 1101595" transform="translate(1.333 21.3)">
        <g id="Grupo_1101593" data-name="Grupo 1101593">
          <path id="Trazado_915937" data-name="Trazado 915937" d="M77.739,69.775H9.277A1.777,1.777,0,0,0,7.5,71.552v8.967H67Z" transform="translate(-7.5 -69.775)" fill="#8db3df"/>
          <path id="Trazado_915938" data-name="Trazado 915938" d="M411.986,69.775H404.9L394.158,80.519h19.6V71.552a1.777,1.777,0,0,0-1.777-1.777Z" transform="translate(-325.459 -69.775)" fill="#8db3df"/>
        </g>
        <g id="Grupo_1101594" data-name="Grupo 1101594">
          <path id="Trazado_915939" data-name="Trazado 915939" d="M18.249,69.775H9.277A1.777,1.777,0,0,0,7.5,71.552v8.967h8.973V71.552A1.777,1.777,0,0,1,18.249,69.775Z" transform="translate(-7.5 -69.775)" fill="#799fca"/>
        </g>
        <path id="Trazado_915940" data-name="Trazado 915940" d="M111.957,156.678H93.241l-8.551,8.551a4.441,4.441,0,0,1-1.531,1l-5.907,2.3a.355.355,0,0,1-.46-.46l2.3-5.907a4.443,4.443,0,0,1,1-1.531l3.949-3.949H34.824a.888.888,0,0,0-.888.888v41.556a.888.888,0,0,0,.888.888H45.141v-3.891a.888.888,0,0,1,.888-.888h54.723a.888.888,0,0,1,.888.888v3.891h10.316a.888.888,0,0,0,.888-.888V157.567A.888.888,0,0,0,111.957,156.678Z" transform="translate(-29.239 -141.238)" fill="#fed2a4"/>
        <path id="Trazado_915941" data-name="Trazado 915941" d="M39.966,157.567a.888.888,0,0,1,.888-.888h-6.03a.888.888,0,0,0-.888.888v28.026a12.546,12.546,0,0,1,6.03-1.841Z" transform="translate(-29.239 -141.238)" fill="#ffbd86"/>
      </g>
      <g id="Grupo_1101601" data-name="Grupo 1101601" transform="translate(6.03 46.297)">
        <g id="Grupo_1101596" data-name="Grupo 1101596" transform="translate(13.347)">
          <path id="Trazado_915942" data-name="Trazado 915942" d="M136.686,230.5l2.286-2.9-13.25-16.792a.888.888,0,0,0-1.395,0l-15.269,19.351a12.443,12.443,0,0,1,3.287,3.1l.082.112.128-.052a12.437,12.437,0,0,1,10.472.531l.157.083.083-.157a9.239,9.239,0,0,1,13.418-3.281Z" transform="translate(-109.059 -210.469)" fill="#0593fc"/>
        </g>
        <g id="Grupo_1101597" data-name="Grupo 1101597" transform="translate(13.347 9.372)">
          <path id="Trazado_915943" data-name="Trazado 915943" d="M117.2,263.215l-8.141,10.317a12.448,12.448,0,0,1,3.16,2.938l7.73-9.772Z" transform="translate(-109.059 -263.215)" fill="#0182fc"/>
        </g>
        <path id="Trazado_915944" data-name="Trazado 915944" d="M163.4,210.808a.888.888,0,0,0-1.395,0l-7.128,9.033,3.219,4.08a.888.888,0,0,0,1.395,0L163.3,219.1l2.082,2.639a.888.888,0,0,0,1.395,0l2.623-3.324Z" transform="translate(-133.391 -210.47)" fill="#fff"/>
        <g id="Grupo_1101598" data-name="Grupo 1101598" transform="translate(40.974 6.026)">
          <path id="Trazado_915945" data-name="Trazado 915945" d="M267.79,262.338l.108.25.185-.2a11.543,11.543,0,0,1,17.048.154l.241.269.066-.355a11.49,11.49,0,0,1,1.813-4.4l-10.522-13.335a.888.888,0,0,0-1.395,0l-10.782,13.664A9.235,9.235,0,0,1,267.79,262.338Z" transform="translate(-264.553 -244.386)" fill="#0182fc"/>
        </g>
        <path id="Trazado_915946" data-name="Trazado 915946" d="M107.149,291.979a11.728,11.728,0,0,0-11.527,9.582,11.72,11.72,0,0,0-17.311-.156,9.418,9.418,0,0,0-16.975-.682,12.615,12.615,0,0,0-10.622-.539,12.613,12.613,0,0,0-16.778-3.331v13.531a.888.888,0,0,0,.888.888H45.141v-3.891a.888.888,0,0,1,.888-.888h54.723a.888.888,0,0,1,.888.888v3.891h10.316a.888.888,0,0,0,.888-.888V293.456A11.67,11.67,0,0,0,107.149,291.979Z" transform="translate(-33.936 -277.497)" fill="#46cc8d"/>
        <g id="Grupo_1101600" data-name="Grupo 1101600" transform="translate(40.974 6.026)">
          <g id="Grupo_1101599" data-name="Grupo 1101599">
            <path id="Trazado_915947" data-name="Trazado 915947" d="M267.517,261.76l11.306-14.382-2.094-2.654a.888.888,0,0,0-1.395,0l-10.782,13.664A9.232,9.232,0,0,1,267.517,261.76Z" transform="translate(-264.553 -244.386)" fill="#0172fb"/>
          </g>
        </g>
      </g>
      <g id="Grupo_1101602" data-name="Grupo 1101602" transform="translate(6.03 63.813)">
        <path id="Trazado_915948" data-name="Trazado 915948" d="M34.825,325.315h6.03a.888.888,0,0,1-.888-.888V309.055a12.546,12.546,0,0,0-6.03,1.841v13.531A.888.888,0,0,0,34.825,325.315Z" transform="translate(-33.937 -309.055)" fill="#08b865"/>
      </g>
      <g id="Grupo_1101603" data-name="Grupo 1101603" transform="translate(17.234 75.294)">
        <path id="Trazado_915949" data-name="Trazado 915949" d="M107.483,374.036l-.178-.362H97.888a.888.888,0,0,0-.888.888v19.544a.888.888,0,0,0,.888.888h9.417l.178-.349Z" transform="translate(-97 -373.674)" fill="#8db3df"/>
      </g>
      <g id="Grupo_1101604" data-name="Grupo 1101604" transform="translate(17.234 75.294)">
        <path id="Trazado_915950" data-name="Trazado 915950" d="M100.731,394.106V374.562a.888.888,0,0,1,.888-.888H97.888a.888.888,0,0,0-.888.888v19.544a.888.888,0,0,0,.888.888h3.731A.888.888,0,0,1,100.731,394.106Z" transform="translate(-97 -373.674)" fill="#799fca"/>
      </g>
      <g id="Grupo_1101605" data-name="Grupo 1101605" transform="translate(12.793 42.443)">
        <circle id="Elipse_11715" data-name="Elipse 11715" cx="4.225" cy="4.225" r="4.225" fill="#fe9901"/>
      </g>
      <g id="Grupo_1101606" data-name="Grupo 1101606" transform="translate(12.793 42.443)">
        <path id="Trazado_915951" data-name="Trazado 915951" d="M75.731,193a4.225,4.225,0,0,1,2.36-3.792,4.225,4.225,0,1,0,0,7.583A4.225,4.225,0,0,1,75.731,193Z" transform="translate(-72 -188.775)" fill="#fb8801"/>
      </g>
      <path id="Trazado_915952" data-name="Trazado 915952" d="M163.4,210.808a.888.888,0,0,0-1.395,0l-7.128,9.033,2.749,3.483,7.835-9.9Z" transform="translate(-127.361 -164.173)" fill="#eaf6ff"/>
      <g id="Grupo_1101607" data-name="Grupo 1101607" transform="translate(48.86 12.159)">
        <path id="Trazado_915953" data-name="Trazado 915953" d="M281.392,52.458l-5.907,2.3a.355.355,0,0,1-.46-.46l2.3-5.907a4.442,4.442,0,0,1,1-1.531L305.9,19.279a3.254,3.254,0,0,1,4.6,4.6L282.923,51.459a4.441,4.441,0,0,1-1.531,1Z" transform="translate(-275 -18.326)" fill="#46cc8d"/>
      </g>
      <g id="Grupo_1101608" data-name="Grupo 1101608" transform="translate(48.86 12.159)">
        <path id="Trazado_915954" data-name="Trazado 915954" d="M280.61,49.809a4.443,4.443,0,0,1,1-1.531L309.187,20.7a3.237,3.237,0,0,1,1.737-.9,3.255,3.255,0,0,0-5.024-.52L278.322,46.857a4.442,4.442,0,0,0-1,1.531l-2.3,5.907a.355.355,0,0,0,.46.46l3.771-1.467Z" transform="translate(-275.001 -18.326)" fill="#08b865"/>
      </g>
      <g id="Grupo_1101625" data-name="Grupo 1101625" transform="translate(27.539 75.294)">
        <g id="Grupo_1101609" data-name="Grupo 1101609">
          <path id="Trazado_915955" data-name="Trazado 915955" d="M155,394.995V373.674h45.307a.888.888,0,0,1,.888.888v19.544a.888.888,0,0,1-.888.888Z" transform="translate(-155 -373.674)" fill="#647fa0"/>
        </g>
        <path id="Trazado_915956" data-name="Trazado 915956" d="M159.442,391.886a1.333,1.333,0,0,1-1.333-1.333V378.116a1.333,1.333,0,0,1,1.333-1.333h1.066v-3.109H155v21.321h5.508v-3.109Z" transform="translate(-155 -373.674)" fill="#5e6f90"/>
        <g id="Grupo_1101624" data-name="Grupo 1101624" transform="translate(4.442 4.442)">
          <g id="Grupo_1101616" data-name="Grupo 1101616" transform="translate(0 6.219)">
            <g id="Grupo_1101610" data-name="Grupo 1101610">
              <path id="Trazado_915957" data-name="Trazado 915957" d="M180,433.674h6.219v6.219H180Z" transform="translate(-180 -433.674)" fill="#fed402"/>
            </g>
            <g id="Grupo_1101611" data-name="Grupo 1101611" transform="translate(6.219)">
              <path id="Trazado_915958" data-name="Trazado 915958" d="M215,433.674h6.219v6.219H215Z" transform="translate(-215 -433.674)" fill="#fac600"/>
            </g>
            <g id="Grupo_1101612" data-name="Grupo 1101612" transform="translate(12.437)">
              <path id="Trazado_915959" data-name="Trazado 915959" d="M250,433.674h6.219v6.219H250Z" transform="translate(-250 -433.674)" fill="#fe9901"/>
            </g>
            <g id="Grupo_1101613" data-name="Grupo 1101613" transform="translate(18.656)">
              <path id="Trazado_915960" data-name="Trazado 915960" d="M285,433.674h6.219v6.219H285Z" transform="translate(-285 -433.674)" fill="#fb8801"/>
            </g>
            <g id="Grupo_1101614" data-name="Grupo 1101614" transform="translate(24.874)">
              <path id="Trazado_915961" data-name="Trazado 915961" d="M320,433.674h6.219v6.219H320Z" transform="translate(-320 -433.674)" fill="#fff"/>
            </g>
            <g id="Grupo_1101615" data-name="Grupo 1101615" transform="translate(31.093)">
              <path id="Trazado_915962" data-name="Trazado 915962" d="M355,433.674h6.219v6.219H355Z" transform="translate(-355 -433.674)" fill="#c4e2ff"/>
            </g>
          </g>
          <g id="Grupo_1101623" data-name="Grupo 1101623">
            <g id="Grupo_1101617" data-name="Grupo 1101617">
              <path id="Trazado_915963" data-name="Trazado 915963" d="M180,398.674h6.219v6.219H180Z" transform="translate(-180 -398.674)" fill="#fe646f"/>
            </g>
            <g id="Grupo_1101618" data-name="Grupo 1101618" transform="translate(6.219)">
              <path id="Trazado_915964" data-name="Trazado 915964" d="M215,398.674h6.219v6.219H215Z" transform="translate(-215 -398.674)" fill="#fd4755"/>
            </g>
            <g id="Grupo_1101619" data-name="Grupo 1101619" transform="translate(12.437)">
              <path id="Trazado_915965" data-name="Trazado 915965" d="M250,398.674h6.219v6.219H250Z" transform="translate(-250 -398.674)" fill="#08b865"/>
            </g>
            <g id="Grupo_1101620" data-name="Grupo 1101620" transform="translate(18.656)">
              <path id="Trazado_915966" data-name="Trazado 915966" d="M285,398.674h6.219v6.219H285Z" transform="translate(-285 -398.674)" fill="#46cc8d"/>
            </g>
            <g id="Grupo_1101621" data-name="Grupo 1101621" transform="translate(24.874)">
              <path id="Trazado_915967" data-name="Trazado 915967" d="M320,398.674h6.219v6.219H320Z" transform="translate(-320 -398.674)" fill="#0182fc"/>
            </g>
            <g id="Grupo_1101622" data-name="Grupo 1101622" transform="translate(31.093)">
              <path id="Trazado_915968" data-name="Trazado 915968" d="M355,398.674h6.219v6.219H355Z" transform="translate(-355 -398.674)" fill="#0172fb"/>
            </g>
          </g>
        </g>
      </g>
      <g id="Grupo_1101626" data-name="Grupo 1101626" transform="translate(0 10.826)">
        <circle id="Elipse_11716" data-name="Elipse 11716" cx="1.333" cy="1.333" r="1.333" transform="translate(5.508 14.382)"/>
        <circle id="Elipse_11717" data-name="Elipse 11717" cx="1.333" cy="1.333" r="1.333" transform="translate(9.417 14.382)"/>
        <circle id="Elipse_11718" data-name="Elipse 11718" cx="1.333" cy="1.333" r="1.333" transform="translate(13.325 14.382)"/>
        <path id="Trazado_915969" data-name="Trazado 915969" d="M70.058,181.275a5.558,5.558,0,1,0,5.558,5.558A5.564,5.564,0,0,0,70.058,181.275Zm0,8.451a2.893,2.893,0,1,1,2.893-2.893A2.9,2.9,0,0,1,70.058,189.726Z" transform="translate(-53.04 -150.991)"/>
        <path id="Trazado_915970" data-name="Trazado 915970" d="M119.833,396.438a1.333,1.333,0,0,0,1.333-1.333v-1.6a1.333,1.333,0,1,0-2.665,0v1.6A1.333,1.333,0,0,0,119.833,396.438Z" transform="translate(-97.446 -324.419)"/>
        <path id="Trazado_915971" data-name="Trazado 915971" d="M119.833,455.438a1.333,1.333,0,0,0,1.333-1.333v-1.6a1.333,1.333,0,1,0-2.665,0v1.6A1.333,1.333,0,0,0,119.833,455.438Z" transform="translate(-97.446 -372.936)"/>
        <path id="Trazado_915972" data-name="Trazado 915972" d="M87.859,19.967H83.992L85.3,18.656a4.586,4.586,0,1,0-6.486-6.486l-7.8,7.8H21.854a1.333,1.333,0,1,0,0,2.665h46.5l-8.078,8.078H2.665V23.076a.445.445,0,0,1,.444-.444H15.635a1.333,1.333,0,1,0,0-2.665H3.109A3.113,3.113,0,0,0,0,23.076V82.105a4,4,0,0,0,4,4H15.9v9.624a2.223,2.223,0,0,0,2.221,2.221H72.846a2.223,2.223,0,0,0,2.221-2.221V86.1h11.9a4,4,0,0,0,4-4V23.076A3.113,3.113,0,0,0,87.859,19.967ZM80.7,14.054a1.921,1.921,0,1,1,2.717,2.717L55.841,44.349a3.087,3.087,0,0,1-1.072.7l-3.837,1.492L52.424,42.7a3.094,3.094,0,0,1,.7-1.072ZM15.9,83.438H4a1.334,1.334,0,0,1-1.333-1.333V33.376H57.611l-2.032,2.032H6.918A2.223,2.223,0,0,0,4.7,37.629V79.185a2.223,2.223,0,0,0,2.221,2.221H15.9ZM26.207,95.283h-7.64v-8h7.64Zm0-10.66h-7.64v-8h7.64Zm46.2,10.66H28.872V76.627H72.4Zm.444-21.321H18.123A2.223,2.223,0,0,0,15.9,76.183v2.558H7.362V66.428a11.283,11.283,0,0,1,14.369,3.343,1.332,1.332,0,0,0,1.576.449,11.283,11.283,0,0,1,9.5.481,1.332,1.332,0,0,0,1.8-.554,8.085,8.085,0,0,1,14.574.585,1.332,1.332,0,0,0,2.2.381,10.435,10.435,0,0,1,5.874-3.17,1.333,1.333,0,1,0-.442-2.628,13.1,13.1,0,0,0-6.053,2.741,10.736,10.736,0,0,0-1.777-2.086l9.5-12.041,9.473,12.006a12.972,12.972,0,0,0-.935,1.964,13.1,13.1,0,0,0-3.284-1.874,1.333,1.333,0,1,0-.97,2.482,10.466,10.466,0,0,1,3.957,2.745,1.333,1.333,0,0,0,2.3-.648,10.393,10.393,0,0,1,14.581-7.531V78.74h-8.54V76.182a2.223,2.223,0,0,0-2.221-2.22ZM29.691,60.574a2.221,2.221,0,0,0,3.487,0l2.761-3.5,1.036,1.313a2.221,2.221,0,0,0,3.487,0l1.577-2,5.554,7.038L46.8,64.435a10.751,10.751,0,0,0-13.883,3.374,13.956,13.956,0,0,0-9.658-.4,13.928,13.928,0,0,0-1.866-1.82l6.126-7.764Zm-.475-4.905L35.343,47.9l5,6.335-1.623,2.057-1.734-2.2a1.333,1.333,0,0,0-2.092,0l-3.459,4.383ZM88.3,82.105a1.334,1.334,0,0,1-1.333,1.333h-11.9V81.406h8.984a2.223,2.223,0,0,0,2.221-2.221V51.011a1.333,1.333,0,1,0-2.665,0V60.2a13.056,13.056,0,0,0-14.015,3.506L60.226,51.836a2.221,2.221,0,0,0-3.487,0l-7.449,9.44L37.087,45.81a2.221,2.221,0,0,0-3.487,0l-14.438,18.3a13.9,13.9,0,0,0-11.8-.612V38.073H52.914l-1.675,1.675a5.739,5.739,0,0,0-1.3,1.99l-2.3,5.907a1.688,1.688,0,0,0,2.185,2.185l5.907-2.3a5.736,5.736,0,0,0,1.99-1.3l8.161-8.161h17.72v6.72a1.333,1.333,0,1,0,2.665,0V37.629a2.223,2.223,0,0,0-2.221-2.221h-15.5l2.032-2.032H88.3Zm0-51.394H73.249l8.078-8.078h6.533a.445.445,0,0,1,.444.444Z" transform="translate(0 -10.826)"/>
        <path id="Trazado_915973" data-name="Trazado 915973" d="M173.833,406.276h37.311a1.333,1.333,0,0,0,1.333-1.333V392.507a1.333,1.333,0,0,0-1.333-1.333H173.833a1.333,1.333,0,0,0-1.333,1.333v12.437A1.333,1.333,0,0,0,173.833,406.276Zm32.425-12.437h3.553v3.553h-3.553Zm0,6.219h3.553v3.553h-3.553Zm-6.219-6.219h3.553v3.553h-3.553Zm0,6.219h3.553v3.553h-3.553Zm-6.219-6.219h3.553v3.553h-3.553Zm0,6.219h3.553v3.553h-3.553Zm-6.219-6.219h3.553v3.553H187.6Zm0,6.219h3.553v3.553H187.6Zm-6.219-6.219h3.553v3.553h-3.553Zm0,6.219h3.553v3.553h-3.553Zm-6.219-6.219h3.553v3.553h-3.553Zm0,6.219h3.553v3.553h-3.553Z" transform="translate(-141.851 -323.596)"/>
        <path id="Trazado_915974" data-name="Trazado 915974" d="M381.109,196.507h-1.777a1.333,1.333,0,1,0,0,2.665h1.777a1.333,1.333,0,0,0,0-2.665Z" transform="translate(-310.84 -163.516)"/>
        <path id="Trazado_915975" data-name="Trazado 915975" d="M414.109,243.507h-1.777a1.333,1.333,0,1,0,0,2.665h1.777a1.333,1.333,0,1,0,0-2.665Z" transform="translate(-337.976 -202.166)"/>
        <path id="Trazado_915976" data-name="Trazado 915976" d="M75.109,261.507H73.333a1.333,1.333,0,1,0,0,2.665h1.777a1.333,1.333,0,0,0,0-2.665Z" transform="translate(-59.208 -216.968)"/>
      </g>
    </g>
  </g>
</svg>
