<svg xmlns="http://www.w3.org/2000/svg" width="85" height="85" viewBox="0 0 85 85">
  <g id="Grupo_1101828" data-name="Grupo 1101828" transform="translate(-517.051 -554)">
    <circle id="Elipse_11676" data-name="Elipse 11676" cx="42.5" cy="42.5" r="42.5" transform="translate(517.051 554)" fill="#ff7650"/>
    <g id="diseno-grafico" transform="translate(534.051 550.438)">
      <g id="Grupo_1101436" data-name="Grupo 1101436" transform="translate(0.748 25.611)">
        <g id="Grupo_1101415" data-name="Grupo 1101415" transform="translate(16.552 33.772)">
          <path id="Trazado_915704" data-name="Trazado 915704" d="M173.517,391.882h9.427v5.242h-9.427Z" transform="translate(-173.517 -391.882)" fill="#6e61b6"/>
        </g>
        <g id="Grupo_1101416" data-name="Grupo 1101416" transform="translate(16.552 33.772)">
          <path id="Trazado_915705" data-name="Trazado 915705" d="M173.517,391.882H176.9v5.242h-3.383Z" transform="translate(-173.517 -391.882)" fill="#6354b1"/>
        </g>
        <path id="Trazado_915706" data-name="Trazado 915706" d="M46.523,337.769a5.242,5.242,0,0,1,1.385-3.549H8.022l-.522.1v4.253a1.5,1.5,0,0,0,1.5,1.5H46.523Z" transform="translate(-7.5 -306.197)" fill="#54469c"/>
        <g id="Grupo_1101417" data-name="Grupo 1101417" transform="translate(0 28.023)">
          <path id="Trazado_915707" data-name="Trazado 915707" d="M11.737,338.573V334.32l.522-.1H8.022l-.522.1v4.253a1.5,1.5,0,0,0,1.5,1.5h4.237A1.5,1.5,0,0,1,11.737,338.573Z" transform="translate(-7.5 -334.22)" fill="#463b84"/>
        </g>
        <g id="Grupo_1101418" data-name="Grupo 1101418" transform="translate(11.51 38.914)">
          <path id="Trazado_915708" data-name="Trazado 915708" d="M140.115,443.457H125.282a2.339,2.339,0,0,0-2.339,2.339v1.2a.3.3,0,0,0,.3.3h18.914a.3.3,0,0,0,.3-.3v-1.2A2.34,2.34,0,0,0,140.115,443.457Z" transform="translate(-122.943 -443.457)" fill="#54469c"/>
        </g>
        <g id="Grupo_1101419" data-name="Grupo 1101419" transform="translate(11.51 38.914)">
          <path id="Trazado_915709" data-name="Trazado 915709" d="M127.962,446.994v-1.2a2.339,2.339,0,0,1,2.339-2.339h-5.02a2.339,2.339,0,0,0-2.339,2.339v1.2a.3.3,0,0,0,.3.3h5.02A.3.3,0,0,1,127.962,446.994Z" transform="translate(-122.942 -443.457)" fill="#463b84"/>
        </g>
        <path id="Trazado_915710" data-name="Trazado 915710" d="M42.313,103.7a.5.5,0,0,1-.5-.5V97.129H9a1.5,1.5,0,0,0-1.5,1.5v22.242H47.821a5.3,5.3,0,0,1,2.21-1.51V103.7Z" transform="translate(-7.5 -92.744)" fill="#eaf6ff"/>
        <g id="Grupo_1101420" data-name="Grupo 1101420" transform="translate(0 4.385)">
          <path id="Trazado_915711" data-name="Trazado 915711" d="M13.233,97.129H9a1.5,1.5,0,0,0-1.5,1.5v22.242h4.237V98.625A1.5,1.5,0,0,1,13.233,97.129Z" transform="translate(-7.5 -97.129)" fill="#d8ecfe"/>
        </g>
        <path id="Trazado_915712" data-name="Trazado 915712" d="M331.278,211.709a3.819,3.819,0,0,0-1.992.557l1.153,1.821a.3.3,0,0,1-.253.459h-2.613a3.837,3.837,0,1,0,3.7-2.837Z" transform="translate(-295.543 -195.9)" fill="#fed402"/>
        <g id="Grupo_1101421" data-name="Grupo 1101421" transform="translate(31.898 15.809)">
          <path id="Trazado_915713" data-name="Trazado 915713" d="M347,213.936a3.849,3.849,0,0,1,2.209-2.009,3.84,3.84,0,0,0-3.266.339Z" transform="translate(-344.097 -211.709)" fill="#fac600"/>
          <path id="Trazado_915714" data-name="Trazado 915714" d="M329.989,241.168a3.835,3.835,0,0,1,.132-1h-2.548a3.837,3.837,0,0,0,4.979,4.618,3.838,3.838,0,0,1-2.562-3.619Z" transform="translate(-327.441 -237.332)" fill="#fac600"/>
        </g>
        <g id="Grupo_1101425" data-name="Grupo 1101425" transform="translate(39.023 26.309)">
          <g id="Grupo_1101422" data-name="Grupo 1101422" transform="translate(0 0)">
            <path id="Trazado_915715" data-name="Trazado 915715" d="M404.169,333.463A5.279,5.279,0,0,1,398.9,328.2v-5.915a5.264,5.264,0,0,1,10.528,0V328.2A5.279,5.279,0,0,1,404.169,333.463Z" transform="translate(-398.905 -317.021)" fill="#eaf6ff"/>
          </g>
          <g id="Grupo_1101423" data-name="Grupo 1101423" transform="translate(0)">
            <path id="Trazado_915716" data-name="Trazado 915716" d="M402.246,328.2v-5.915a5.283,5.283,0,0,1,3.594-4.989,5.218,5.218,0,0,0-1.67-.275,5.279,5.279,0,0,0-5.264,5.264V328.2a5.279,5.279,0,0,0,5.264,5.264,5.217,5.217,0,0,0,1.67-.275A5.283,5.283,0,0,1,402.246,328.2Z" transform="translate(-398.906 -317.02)" fill="#d8ecfe"/>
          </g>
          <g id="Grupo_1101424" data-name="Grupo 1101424" transform="translate(3.785 3.157)">
            <path id="Trazado_915717" data-name="Trazado 915717" d="M438.351,352.784a1.479,1.479,0,0,1-1.479-1.479v-1.137a1.479,1.479,0,1,1,2.957,0v1.137A1.479,1.479,0,0,1,438.351,352.784Z" transform="translate(-436.872 -348.689)" fill="#0ed290"/>
          </g>
        </g>
        <path id="Trazado_915718" data-name="Trazado 915718" d="M174.2,172.759a.3.3,0,0,1-.253-.459l4.436-7.006H168.319a.3.3,0,0,0-.3.3v11.7a.3.3,0,0,0,.3.3h11.7a.3.3,0,0,0,.3-.3v-4.536Z" transform="translate(-152.016 -154.113)" fill="#0ed290"/>
        <g id="Grupo_1101426" data-name="Grupo 1101426" transform="translate(16.004 11.181)">
          <path id="Trazado_915719" data-name="Trazado 915719" d="M171.408,177.3v-11.7a.3.3,0,0,1,.3-.3h-3.388a.3.3,0,0,0-.3.3v11.7a.3.3,0,0,0,.3.3h3.388A.3.3,0,0,1,171.408,177.3Z" transform="translate(-168.02 -165.295)" fill="#00c285"/>
        </g>
        <g id="Grupo_1101427" data-name="Grupo 1101427" transform="translate(21.886 8.21)">
          <path id="Trazado_915720" data-name="Trazado 915720" d="M233.289,135.626l-6.229,9.839a.3.3,0,0,0,.253.459h12.458a.3.3,0,0,0,.253-.459l-6.229-9.839A.3.3,0,0,0,233.289,135.626Z" transform="translate(-227.013 -135.487)" fill="#fd4755"/>
        </g>
        <g id="Grupo_1101428" data-name="Grupo 1101428" transform="translate(21.886 8.21)">
          <path id="Trazado_915721" data-name="Trazado 915721" d="M230.448,145.467l4.788-7.562-1.442-2.277a.3.3,0,0,0-.505,0l-6.229,9.839a.3.3,0,0,0,.253.459H230.7A.3.3,0,0,1,230.448,145.467Z" transform="translate(-227.013 -135.489)" fill="#fb2b3a"/>
        </g>
        <g id="Grupo_1101429" data-name="Grupo 1101429" transform="translate(0 11.839)">
          <path id="Trazado_915722" data-name="Trazado 915722" d="M7.5,184.5h3.338a.5.5,0,0,0,.5-.5V171.892H7.5Z" transform="translate(-7.5 -171.892)" fill="#6e61b6"/>
        </g>
        <g id="Grupo_1101430" data-name="Grupo 1101430" transform="translate(0 8.551)">
          <path id="Trazado_915723" data-name="Trazado 915723" d="M11.337,142.2H7.5v-3.289h3.338a.5.5,0,0,1,.5.5Z" transform="translate(-7.5 -138.908)" fill="#463b84"/>
        </g>
        <g id="Grupo_1101435" data-name="Grupo 1101435" transform="translate(34.315)">
          <g id="Grupo_1101431" data-name="Grupo 1101431" transform="translate(0 2.74)">
            <path id="Trazado_915724" data-name="Trazado 915724" d="M352.174,88.844h14.24a.5.5,0,0,0,.5-.5V80.632H351.676v7.714A.5.5,0,0,0,352.174,88.844Z" transform="translate(-351.676 -80.632)" fill="#ffe5c2"/>
          </g>
          <g id="Grupo_1101432" data-name="Grupo 1101432" transform="translate(0 2.74)">
            <path id="Trazado_915725" data-name="Trazado 915725" d="M355.016,88.346V80.632h-3.34v7.714a.5.5,0,0,0,.5.5h3.34A.5.5,0,0,1,355.016,88.346Z" transform="translate(-351.676 -80.632)" fill="#fed2a4"/>
          </g>
          <g id="Grupo_1101433" data-name="Grupo 1101433" transform="translate(0 0)">
            <path id="Trazado_915726" data-name="Trazado 915726" d="M366.913,55.885H351.676V53.644a.5.5,0,0,1,.5-.5h14.24a.5.5,0,0,1,.5.5Z" transform="translate(-351.676 -53.145)" fill="#6e61b6"/>
          </g>
          <g id="Grupo_1101434" data-name="Grupo 1101434">
            <path id="Trazado_915727" data-name="Trazado 915727" d="M355.514,53.145h-3.34a.5.5,0,0,0-.5.5v2.242h3.34V53.644A.5.5,0,0,1,355.514,53.145Z" transform="translate(-351.676 -53.145)" fill="#6354b1"/>
          </g>
        </g>
      </g>
      <g id="Grupo_1101444" data-name="Grupo 1101444" transform="translate(0.748 23.31)">
        <g id="Grupo_1101441" data-name="Grupo 1101441">
          <g id="Grupo_1101437" data-name="Grupo 1101437" transform="translate(0 0)">
            <path id="Trazado_915728" data-name="Trazado 915728" d="M11.107,30.29l-.1-.227H8.5a1,1,0,0,0-1,1V32.9a1,1,0,0,0,1,1h2.511l.1-.234V30.29Z" transform="translate(-7.5 -30.063)" fill="#fd4755"/>
          </g>
          <g id="Grupo_1101438" data-name="Grupo 1101438" transform="translate(0 1.19)">
            <path id="Trazado_915729" data-name="Trazado 915729" d="M8.5,43a1,1,0,0,1-1-1v1.649a1,1,0,0,0,1,1h2.511l.1-.234V42.763l-.1.234Z" transform="translate(-7.5 -42)" fill="#fb2b3a"/>
          </g>
          <g id="Grupo_1101439" data-name="Grupo 1101439" transform="translate(21.275)">
            <path id="Trazado_915730" data-name="Trazado 915730" d="M224.751,31.706l-3.758-1.644-.1.2v3.405l.1.23,3.758-1.644a.3.3,0,0,0,0-.548Z" transform="translate(-220.893 -30.062)" fill="#54469c"/>
          </g>
          <g id="Grupo_1101440" data-name="Grupo 1101440" transform="translate(21.375 1.094)">
            <path id="Trazado_915731" data-name="Trazado 915731" d="M225.651,41.582l-1.259-.551-2.5,1.094v1.649l3.758-1.644A.3.3,0,0,0,225.651,41.582Z" transform="translate(-221.893 -41.031)" fill="#463b84"/>
          </g>
        </g>
        <g id="Grupo_1101442" data-name="Grupo 1101442" transform="translate(3.508 0)">
          <path id="Trazado_915732" data-name="Trazado 915732" d="M42.682,30.063H60.549V33.9H42.682Z" transform="translate(-42.682 -30.063)" fill="#fed402"/>
        </g>
        <g id="Grupo_1101443" data-name="Grupo 1101443" transform="translate(3.508 0)">
          <path id="Trazado_915733" data-name="Trazado 915733" d="M45.185,32.25V30.063h-2.5V33.9H60.549V32.25Z" transform="translate(-42.682 -30.063)" fill="#fac600"/>
        </g>
      </g>
      <g id="Grupo_1101445" data-name="Grupo 1101445" transform="translate(0 22.562)">
        <path id="Trazado_915734" data-name="Trazado 915734" d="M78.792,157.795H73.311a.748.748,0,1,0,0,1.5h5.481a.748.748,0,1,0,0-1.5Z" transform="translate(-65.328 -144.312)"/>
        <path id="Trazado_915735" data-name="Trazado 915735" d="M78.792,181.983H73.311a.748.748,0,1,0,0,1.5h5.481a.748.748,0,0,0,0-1.5Z" transform="translate(-65.328 -166.089)"/>
        <path id="Trazado_915736" data-name="Trazado 915736" d="M78.792,206.171H73.311a.748.748,0,0,0,0,1.5h5.481a.748.748,0,0,0,0-1.5Z" transform="translate(-65.328 -187.865)"/>
        <path id="Trazado_915737" data-name="Trazado 915737" d="M78.792,242.453H73.311a.748.748,0,1,0,0,1.5h5.481a.748.748,0,1,0,0-1.5Z" transform="translate(-65.328 -220.53)"/>
        <path id="Trazado_915738" data-name="Trazado 915738" d="M78.792,266.641H73.311a.748.748,0,1,0,0,1.5h5.481a.748.748,0,1,0,0-1.5Z" transform="translate(-65.328 -242.306)"/>
        <path id="Trazado_915739" data-name="Trazado 915739" d="M76.161,290.829h-2.85a.748.748,0,1,0,0,1.5h2.85a.748.748,0,1,0,0-1.5Z" transform="translate(-65.328 -264.083)"/>
        <path id="Trazado_915740" data-name="Trazado 915740" d="M174.563,128.475a1.047,1.047,0,0,0-1.769,0l-1.573,2.485h-9.653a1.048,1.048,0,0,0-1.047,1.047v11.7a1.048,1.048,0,0,0,1.047,1.047h11.7a1.048,1.048,0,0,0,1.047-1.047V139.92h2.105q-.007.125-.007.251a4.586,4.586,0,1,0,2.864-4.249Zm-1.742,14.786H162.016V132.455h8.258l-3.709,5.858a1.047,1.047,0,0,0,.885,1.607h5.372Zm-4.557-4.836,5.414-8.551,5.414,8.551Zm12.528-.111-.693-1.1a3.088,3.088,0,1,1-2.188,2.953c0-.085,0-.168.011-.251h1.987a1.047,1.047,0,0,0,.884-1.607Z" transform="translate(-144.516 -117.477)"/>
        <path id="Trazado_915741" data-name="Trazado 915741" d="M384.994,102.466a.748.748,0,0,0-.748-.748h-9.238a.748.748,0,1,0,0,1.5h9.238A.748.748,0,0,0,384.994,102.466Z" transform="translate(-336.946 -93.826)"/>
        <path id="Trazado_915742" data-name="Trazado 915742" d="M375.008,125.5a.748.748,0,1,0,0,1.5h2.759a.748.748,0,0,0,0-1.5Z" transform="translate(-336.946 -115.237)"/>
        <path id="Trazado_915743" data-name="Trazado 915743" d="M430.361,127h3.719a.748.748,0,1,0,0-1.5h-3.719a.748.748,0,0,0,0,1.5Z" transform="translate(-386.78 -115.237)"/>
        <path id="Trazado_915744" data-name="Trazado 915744" d="M48.355,58.094H49.8a1.248,1.248,0,0,0,1.246-1.246V46.892A1.248,1.248,0,0,0,49.8,45.646H35.561a1.248,1.248,0,0,0-1.246,1.246v3.139H2.243A2.246,2.246,0,0,0,0,52.274v26.5a2.246,2.246,0,0,0,2.243,2.243H16.552V84.56H14.6a3.091,3.091,0,0,0-3.087,3.087v1.2a1.048,1.048,0,0,0,1.047,1.047H31.47a1.048,1.048,0,0,0,1.047-1.047v-1.2A3.091,3.091,0,0,0,29.43,84.56H27.475V81.014H39.024v2.867a6.012,6.012,0,1,0,12.023,0V77.966a6.006,6.006,0,0,0-7.02-5.925V58.094h.839a.748.748,0,0,0,0-1.5H35.81V49.882H49.551V56.6h-1.2a.748.748,0,0,0,0,1.5ZM1.5,55.692H3.836v1.793H1.5Zm0,3.289H3.836v11.11H1.5ZM29.43,86.056a1.594,1.594,0,0,1,1.592,1.592V88.4H13.005v-.749A1.593,1.593,0,0,1,14.6,86.056Zm-11.382-1.5V81.014h7.932V84.56ZM44.3,77.338a.731.731,0,1,1,1.462,0v1.137a.731.731,0,1,1-1.462,0Zm-.017-3.825v1.729a2.23,2.23,0,0,0-1.479,2.1v1.137a2.23,2.23,0,0,0,1.479,2.1v1.12a.748.748,0,0,0,1.5,0v-1.12a2.23,2.23,0,0,0,1.479-2.1V77.338a2.23,2.23,0,0,0-1.479-2.1V73.513a4.523,4.523,0,0,1,3.768,4.453v5.915a4.516,4.516,0,0,1-9.032,0V77.966A4.523,4.523,0,0,1,44.287,73.513ZM42.531,58.094V72.5a6.037,6.037,0,0,0-1.794,1.266H16.251a.748.748,0,1,0,0,1.5H39.667a5.973,5.973,0,0,0-.644,2.7v1.552H2.243A.749.749,0,0,1,1.5,78.77V75.265H12.762a.748.748,0,0,0,0-1.5H1.5V71.586h2.59A1.248,1.248,0,0,0,5.332,70.34v-14.9A1.248,1.248,0,0,0,4.086,54.2H1.5V52.274a.749.749,0,0,1,.748-.748H34.315v5.321a1.248,1.248,0,0,0,1.246,1.246ZM35.81,48.386V47.142H49.551v1.245Z" transform="translate(0 -43.345)"/>
        <path id="Trazado_915745" data-name="Trazado 915745" d="M200.3,356.092h2.74a.748.748,0,1,0,0-1.5H200.3a.748.748,0,1,0,0,1.5Z" transform="translate(-179.656 -321.493)"/>
        <path id="Trazado_915746" data-name="Trazado 915746" d="M1.745,27.894H22.123a.748.748,0,0,0,.227-.035l3.831-1.672a1.047,1.047,0,0,0,0-1.918l-3.758-1.644a.744.744,0,0,0-.3-.063H11.765a.748.748,0,0,0,0,1.5h9.611V26.4H5V24.058H8.275a.748.748,0,1,0,0-1.5H1.745A1.747,1.747,0,0,0,0,24.307v1.843a1.747,1.747,0,0,0,1.745,1.745Zm21.126-3.441,1.771.775L22.871,26ZM1.5,24.307a.25.25,0,0,1,.249-.249H3.508V26.4H1.745a.25.25,0,0,1-.249-.249Z" transform="translate(0 -22.562)"/>
      </g>
    </g>
  </g>
</svg>
