<svg xmlns="http://www.w3.org/2000/svg" xmlns:xlink="http://www.w3.org/1999/xlink" width="295" height="346" viewBox="0 0 295 346">
  <defs>
    <clipPath id="clip-path">
      <rect id="Rectángulo_403226" data-name="Rectángulo 403226" width="295" height="346" rx="5" transform="translate(186.084 1954)" fill="#feead2"/>
    </clipPath>
    <clipPath id="clip-path-2">
      <rect id="Rectángulo_403225" data-name="Rectángulo 403225" width="317.136" height="315.427" fill="none"/>
    </clipPath>
    <clipPath id="clip-path-5">
      <path id="Trazado_915227" data-name="Trazado 915227" d="M268.315,118.131a84.09,84.09,0,0,0-35.456,48.863l96.333,79.65c10.273-2.175,20.626-4.376,30.252-8.572s18.591-10.584,24.1-19.521a34.551,34.551,0,0,0,5.174-17.912v-.012a27.359,27.359,0,0,0-2.745-12.147c-4.658-9.41-16.19-15.417-26.2-12.255,2.4-4.467,1.493-10.473-1.67-14.741a19.5,19.5,0,0,0-13.612-7.384,28.12,28.12,0,0,0-15.4,3.155,33.877,33.877,0,0,0,3.126-10.74c.272-3.741-.74-7.763-3.516-10.286-3.82-3.471-9.775-3.192-14.674-1.569a34.373,34.373,0,0,0-18.6,15c1.315-8.313,2.563-15.377.984-22.135s-6.73-13.171-13.617-14.026a13.383,13.383,0,0,0-1.651-.1c-4.548,0-8.941,2.235-12.823,4.733" transform="translate(-232.859 -113.398)" fill="none"/>
    </clipPath>
    <clipPath id="clip-path-7">
      <path id="Trazado_915235" data-name="Trazado 915235" d="M233.863,380.713a42.766,42.766,0,0,0-12.783,19.268c-.911,2.842-1.461,6.158.188,8.648,1.723,2.6,5.4,3.333,8.38,2.423s5.384-3.114,8.423-6.3a23.517,23.517,0,0,0,15.8,14.565c4.408,1.178,9.459.907,13.076-1.874,4.5-3.466,5.636-9.676,6.269-14.553,6.9,5.746,14.071,11.532,22.6,14.328s18.82,2,25.256-4.257c4.884-4.749,6.826-11.935,6.454-18.736s-2.813-13.317-5.632-19.517Z" transform="translate(-220.209 -374.71)" fill="none"/>
    </clipPath>
    <clipPath id="clip-path-9">
      <rect id="Rectángulo_403191" data-name="Rectángulo 403191" width="77.108" height="33.491" fill="none"/>
    </clipPath>
    <clipPath id="clip-path-10">
      <rect id="Rectángulo_403192" data-name="Rectángulo 403192" width="12.128" height="17.196" fill="none"/>
    </clipPath>
    <clipPath id="clip-path-11">
      <rect id="Rectángulo_403193" data-name="Rectángulo 403193" width="69.316" height="42.854" fill="none"/>
    </clipPath>
    <clipPath id="clip-path-12">
      <rect id="Rectángulo_403194" data-name="Rectángulo 403194" width="16.87" height="10.308" fill="none"/>
    </clipPath>
    <clipPath id="clip-path-13">
      <rect id="Rectángulo_403195" data-name="Rectángulo 403195" width="4.41" height="4.895" fill="none"/>
    </clipPath>
    <clipPath id="clip-path-14">
      <rect id="Rectángulo_403196" data-name="Rectángulo 403196" width="1.393" height="1.871" fill="none"/>
    </clipPath>
    <clipPath id="clip-path-15">
      <rect id="Rectángulo_403197" data-name="Rectángulo 403197" width="3.177" height="5.578" fill="none"/>
    </clipPath>
    <clipPath id="clip-path-16">
      <rect id="Rectángulo_403198" data-name="Rectángulo 403198" width="1.363" height="1.585" fill="none"/>
    </clipPath>
    <clipPath id="clip-path-17">
      <rect id="Rectángulo_403199" data-name="Rectángulo 403199" width="3.687" height="5.242" fill="none"/>
    </clipPath>
    <clipPath id="clip-path-18">
      <rect id="Rectángulo_403200" data-name="Rectángulo 403200" width="1.333" height="1.613" fill="none"/>
    </clipPath>
    <clipPath id="clip-path-19">
      <rect id="Rectángulo_403201" data-name="Rectángulo 403201" width="188.635" height="173.736" fill="none"/>
    </clipPath>
    <clipPath id="clip-path-20">
      <rect id="Rectángulo_403202" data-name="Rectángulo 403202" width="112.914" height="100.395" fill="none"/>
    </clipPath>
    <clipPath id="clip-path-21">
      <rect id="Rectángulo_403203" data-name="Rectángulo 403203" width="21.099" height="38.032" fill="none"/>
    </clipPath>
    <clipPath id="clip-path-22">
      <rect id="Rectángulo_403204" data-name="Rectángulo 403204" width="9.628" height="9.757" fill="none"/>
    </clipPath>
    <clipPath id="clip-path-23">
      <rect id="Rectángulo_403205" data-name="Rectángulo 403205" width="160.951" height="132.409" fill="none"/>
    </clipPath>
    <clipPath id="clip-path-24">
      <rect id="Rectángulo_403215" data-name="Rectángulo 403215" width="17.807" height="23.557" fill="none"/>
    </clipPath>
    <clipPath id="clip-path-26">
      <rect id="Rectángulo_403217" data-name="Rectángulo 403217" width="26.031" height="26.033" fill="none"/>
    </clipPath>
    <clipPath id="clip-path-27">
      <rect id="Rectángulo_403218" data-name="Rectángulo 403218" width="6.976" height="10.111" fill="none"/>
    </clipPath>
    <clipPath id="clip-path-28">
      <rect id="Rectángulo_403219" data-name="Rectángulo 403219" width="2.438" height="2.62" fill="none"/>
    </clipPath>
    <clipPath id="clip-path-29">
      <rect id="Rectángulo_403220" data-name="Rectángulo 403220" width="4.706" height="7.714" fill="none"/>
    </clipPath>
    <clipPath id="clip-path-30">
      <rect id="Rectángulo_403221" data-name="Rectángulo 403221" width="2.106" height="2.362" fill="none"/>
    </clipPath>
  </defs>
  <g id="Grupo_1101411" data-name="Grupo 1101411" transform="translate(-186.084 -1954)">
    <rect id="Rectángulo_402908" data-name="Rectángulo 402908" width="295" height="346" rx="5" transform="translate(186.084 1954)" fill="#feead2"/>
    <g id="Enmascarar_grupo_1098693" data-name="Enmascarar grupo 1098693" clip-path="url(#clip-path)">
      <g id="Grupo_1101410" data-name="Grupo 1101410" transform="translate(175.084 1969)">
        <g id="Grupo_1101409" data-name="Grupo 1101409" clip-path="url(#clip-path-2)">
          <g id="Grupo_1101326" data-name="Grupo 1101326">
            <g id="Grupo_1101325" data-name="Grupo 1101325" clip-path="url(#clip-path-2)">
              <path id="Trazado_915203" data-name="Trazado 915203" d="M210.123,82.908A559.186,559.186,0,0,0,13.181,197.47a39.844,39.844,0,0,0,3.439,61.98,494.785,494.785,0,0,0,109.86,59.5,92.982,92.982,0,0,0,113.642-39.519,371.7,371.7,0,0,0,24.441-49.98c9.761-24.235,17.291-49.265,23.6-74.636a60.554,60.554,0,0,0-78.037-71.9" transform="translate(0 -24.526)" fill="#d6ceff"/>
            </g>
          </g>
          <g id="Grupo_1101328" data-name="Grupo 1101328">
            <g id="Grupo_1101327" data-name="Grupo 1101327" clip-path="url(#clip-path-2)">
              <path id="Trazado_915204" data-name="Trazado 915204" d="M433.029,186.02a1.322,1.322,0,1,0-1.323,1.322A1.323,1.323,0,0,0,433.029,186.02Z" transform="translate(-132.302 -56.777)" fill="none" stroke="#17014e" stroke-linecap="round" stroke-linejoin="round" stroke-width="1"/>
              <path id="Trazado_915205" data-name="Trazado 915205" d="M38.3,171.354a1.322,1.322,0,1,0-1.322,1.323A1.322,1.322,0,0,0,38.3,171.354Z" transform="translate(-10.96 -52.269)" fill="none" stroke="#17014e" stroke-linecap="round" stroke-linejoin="round" stroke-width="1"/>
              <path id="Trazado_915206" data-name="Trazado 915206" d="M28.135,193.338a1.787,1.787,0,1,0-1.787,1.787,1.787,1.787,0,0,0,1.787-1.787" transform="translate(-7.55 -58.884)" fill="#d6ceff"/>
              <path id="Trazado_915207" data-name="Trazado 915207" d="M411.5,31.616a1.787,1.787,0,1,0-1.787,1.787,1.787,1.787,0,0,0,1.787-1.787" transform="translate(-125.398 -9.17)" fill="#d6ceff"/>
              <path id="Trazado_915208" data-name="Trazado 915208" d="M414.906,436.832a1.322,1.322,0,1,0-1.322,1.322A1.322,1.322,0,0,0,414.906,436.832Z" transform="translate(-126.731 -133.877)" fill="none" stroke="#17014e" stroke-linecap="round" stroke-linejoin="round" stroke-width="1"/>
              <path id="Trazado_915209" data-name="Trazado 915209" d="M399.241,422.086a1.787,1.787,0,1,0-1.787,1.787,1.787,1.787,0,0,0,1.787-1.787" transform="translate(-121.63 -129.202)" fill="#d6ceff"/>
              <path id="Trazado_915210" data-name="Trazado 915210" d="M410.263,411.353a1.787,1.787,0,1,0-1.787,1.787,1.787,1.787,0,0,0,1.787-1.787" transform="translate(-125.018 -125.902)" fill="#d6ceff"/>
              <path id="Trazado_915211" data-name="Trazado 915211" d="M137.5,395.076a1.787,1.787,0,1,0-1.787,1.787,1.787,1.787,0,0,0,1.787-1.787" transform="translate(-41.171 -120.899)" fill="#e3deff"/>
              <path id="Trazado_915212" data-name="Trazado 915212" d="M239.354,129.726a1.787,1.787,0,1,0-1.787,1.787,1.787,1.787,0,0,0,1.787-1.787" transform="translate(-72.48 -39.329)" fill="#e3deff"/>
              <path id="Trazado_915213" data-name="Trazado 915213" d="M367.057,112.6a1.787,1.787,0,1,0-1.787,1.787,1.787,1.787,0,0,0,1.787-1.787" transform="translate(-111.736 -34.066)" fill="#e3deff"/>
              <line id="Línea_613" data-name="Línea 613" y2="2.986" transform="translate(16.645 183.863)" fill="none" stroke="#fff" stroke-linecap="round" stroke-linejoin="round" stroke-width="1"/>
              <line id="Línea_614" data-name="Línea 614" x2="2.986" transform="translate(15.151 185.356)" fill="none" stroke="#fff" stroke-linecap="round" stroke-linejoin="round" stroke-width="1"/>
              <path id="Trazado_915214" data-name="Trazado 915214" d="M165.892,31.806a1.322,1.322,0,1,0-.913,1.632A1.323,1.323,0,0,0,165.892,31.806Z" transform="translate(-50.198 -9.481)" fill="none" stroke="#17014e" stroke-linecap="round" stroke-linejoin="round" stroke-width="1"/>
              <path id="Trazado_915215" data-name="Trazado 915215" d="M153.82,21a1.787,1.787,0,1,0-1.234,2.206A1.787,1.787,0,0,0,153.82,21" transform="translate(-46.207 -6.055)" fill="#d6ceff"/>
              <line id="Línea_615" data-name="Línea 615" x2="0.812" y2="2.874" transform="translate(90.782 0.346)" fill="none" stroke="#fff" stroke-linecap="round" stroke-linejoin="round" stroke-width="1"/>
              <line id="Línea_616" data-name="Línea 616" y1="0.812" x2="2.874" transform="translate(89.751 1.377)" fill="none" stroke="#fff" stroke-linecap="round" stroke-linejoin="round" stroke-width="1"/>
              <line id="Línea_617" data-name="Línea 617" y2="2.986" transform="translate(302.22 231.37)" fill="none" stroke="#fff" stroke-linecap="round" stroke-linejoin="round" stroke-width="1"/>
              <line id="Línea_618" data-name="Línea 618" x2="2.986" transform="translate(300.727 232.864)" fill="none" stroke="#fff" stroke-linecap="round" stroke-linejoin="round" stroke-width="1"/>
              <path id="Trazado_915216" data-name="Trazado 915216" d="M39.459,422.108a1.322,1.322,0,1,0-1.322,1.322A1.322,1.322,0,0,0,39.459,422.108Z" transform="translate(-11.317 -129.351)" fill="none" stroke="#17014e" stroke-linecap="round" stroke-linejoin="round" stroke-width="1"/>
              <path id="Trazado_915217" data-name="Trazado 915217" d="M72.828,424.481a11.208,11.208,0,1,0-11.208,11.208,11.208,11.208,0,0,0,11.208-11.208" transform="translate(-15.497 -127.042)" fill="#d6ceff"/>
              <line id="Línea_619" data-name="Línea 619" y2="2.986" transform="translate(83.026 310.709)" fill="none" stroke="#fff" stroke-linecap="round" stroke-linejoin="round" stroke-width="1"/>
              <line id="Línea_620" data-name="Línea 620" x2="2.986" transform="translate(81.532 312.202)" fill="none" stroke="#fff" stroke-linecap="round" stroke-linejoin="round" stroke-width="1"/>
              <path id="Trazado_915218" data-name="Trazado 915218" d="M378.973,58.62,368.6,55.592a2.047,2.047,0,0,1-1.423-1.525l-.008-.037a2.044,2.044,0,0,1,.632-1.969l8.057-7.21a2.052,2.052,0,0,0,.492-2.4q-.9-1.934-1.988-3.764a2.052,2.052,0,0,0-2.252-.945l-10.5,2.567a2.047,2.047,0,0,1-1.992-.6l-.021-.023a2.047,2.047,0,0,1-.441-2.025l3.375-10.278a2.052,2.052,0,0,0-.77-2.32q-1.736-1.218-3.593-2.273a2.053,2.053,0,0,0-2.432.3l-7.811,7.473a2.048,2.048,0,0,1-2.016.476l-.039-.012a2.047,2.047,0,0,1-1.405-1.537l-2.214-10.575a2.048,2.048,0,0,0-1.813-1.622c-.708-.064-1.422-.114-2.141-.142s-1.434-.037-2.146-.027a2.047,2.047,0,0,0-1.932,1.477l-3.029,10.374a2.046,2.046,0,0,1-1.526,1.424l-.036.008a2.046,2.046,0,0,1-1.968-.632l-7.211-8.06a2.053,2.053,0,0,0-2.4-.491q-1.933.906-3.761,1.991a2.052,2.052,0,0,0-.945,2.252L315.9,35.975a2.047,2.047,0,0,1-.6,1.986l-.021.019a2.045,2.045,0,0,1-2.031.447l-10.276-3.376a2.052,2.052,0,0,0-2.32.769q-1.218,1.737-2.272,3.593a2.052,2.052,0,0,0,.3,2.429l7.474,7.819a2.044,2.044,0,0,1,.477,2.012l-.012.039a2.046,2.046,0,0,1-1.538,1.409l-10.575,2.211a2.047,2.047,0,0,0-1.622,1.81c-.066.709-.116,1.422-.145,2.141s-.033,1.437-.023,2.149a2.045,2.045,0,0,0,1.476,1.931l10.373,3.029a2.047,2.047,0,0,1,1.424,1.525c0,.012,0,.023.008.035a2.046,2.046,0,0,1-.632,1.968l-8.058,7.212a2.053,2.053,0,0,0-.491,2.4q.9,1.934,1.988,3.761a2.054,2.054,0,0,0,2.254.947l10.5-2.569a2.044,2.044,0,0,1,1.989.6l.021.024a2.044,2.044,0,0,1,.444,2.028L310.645,94.6a2.053,2.053,0,0,0,.769,2.319q1.736,1.221,3.6,2.273a2.054,2.054,0,0,0,2.429-.3l7.815-7.474a2.045,2.045,0,0,1,2.014-.477l.036.011a2.047,2.047,0,0,1,1.407,1.538l2.212,10.575a2.046,2.046,0,0,0,1.813,1.622c.709.065,1.423.116,2.141.145s1.439.034,2.152.023a2.047,2.047,0,0,0,1.929-1.476l3.03-10.374a2.046,2.046,0,0,1,1.526-1.424l.034-.008a2.046,2.046,0,0,1,1.967.632l7.213,8.06a2.053,2.053,0,0,0,2.4.491q1.932-.9,3.761-1.986a2.053,2.053,0,0,0,.947-2.253L357.267,86a2.046,2.046,0,0,1,.6-1.988l.017-.016a2.046,2.046,0,0,1,2.029-.444L370.2,86.929a2.053,2.053,0,0,0,2.319-.768q1.221-1.737,2.275-3.595a2.053,2.053,0,0,0-.3-2.43l-7.475-7.816a2.045,2.045,0,0,1-.478-2.011l.012-.037a2.046,2.046,0,0,1,1.538-1.411l10.577-2.214a2.047,2.047,0,0,0,1.622-1.808c.066-.709.115-1.424.142-2.144s.036-1.433.026-2.146a2.047,2.047,0,0,0-1.477-1.93m-25.429,3.032a16.973,16.973,0,1,1-16.3-17.622,16.977,16.977,0,0,1,16.3,17.622" transform="translate(-89.981 -5.263)" fill="#d6ceff"/>
              <path id="Trazado_915219" data-name="Trazado 915219" d="M232.859,166.994a84.1,84.1,0,0,1,35.456-48.863c4.351-2.8,9.342-5.268,14.475-4.631,6.887.854,12.039,7.267,13.617,14.025s.332,13.821-.984,22.135a34.376,34.376,0,0,1,18.6-15c4.9-1.623,10.855-1.9,14.674,1.569,2.777,2.524,3.789,6.545,3.517,10.286a33.89,33.89,0,0,1-3.127,10.74,28.128,28.128,0,0,1,15.4-3.155,19.5,19.5,0,0,1,13.612,7.384c3.163,4.268,4.069,10.274,1.67,14.742,10.013-3.163,21.544,2.845,26.2,12.255s3.08,21.132-2.43,30.07-14.475,15.325-24.1,19.521-19.979,6.4-30.251,8.573Z" transform="translate(-71.582 -34.859)" fill="#34a5d1"/>
              <path id="Trazado_915220" data-name="Trazado 915220" d="M352.877,157.451a17.088,17.088,0,0,0,13.264,3.119,23.5,23.5,0,0,0,1.01-5.133c.271-3.741-.74-7.763-3.517-10.286-3.819-3.471-9.775-3.192-14.674-1.569-.83.275-1.646.59-2.451.929a16.7,16.7,0,0,0,6.368,12.94" transform="translate(-106.518 -43.782)" fill="#228fba"/>
              <path id="Trazado_915221" data-name="Trazado 915221" d="M391.956,191.917a15.463,15.463,0,0,0-1.4-5.256c-8.663-.623-17.466,4.186-23.431,10.776-6.92,7.646-10.958,17.381-15.6,26.592-4.453,8.845-9.913,17.7-18.231,22.99L354.448,264.5a34.667,34.667,0,0,0,12.316-15.024c2.933-6.569,4.2-13.771,4.721-20.946.6-8.223.3-16.755,3.5-24.357,2.885-6.865,9.8-12.747,16.975-12.257" transform="translate(-102.459 -57.364)" fill="#228fba"/>
              <path id="Trazado_915222" data-name="Trazado 915222" d="M438.47,209.756A33.432,33.432,0,0,0,426.441,234.4a32.438,32.438,0,0,0,9.177,22.7,42.524,42.524,0,0,0,7.433-8.926c5.51-8.939,7.089-20.662,2.43-30.07a23.728,23.728,0,0,0-7.01-8.345" transform="translate(-131.089 -64.48)" fill="#228fba"/>
              <path id="Trazado_915223" data-name="Trazado 915223" d="M314.413,192.717A33.489,33.489,0,0,0,304.33,164.9c-4.95-4.68-11.7-8.333-13.5-14.9-1.22-4.431.184-9.1.589-13.679a31.856,31.856,0,0,0-6.533-22.063,29.669,29.669,0,0,0-7.551,3.464c3.791,3.942,3.865,10.746,1.586,15.923-2.529,5.744-7.185,10.23-10.843,15.33a51.009,51.009,0,0,0-9.244,33.191l41.179,34.048a33.555,33.555,0,0,0,14.4-23.5" transform="translate(-79.524 -35.123)" fill="#228fba"/>
            </g>
          </g>
          <g id="Grupo_1101330" data-name="Grupo 1101330" transform="translate(161.277 78.539)">
            <g id="Grupo_1101329" data-name="Grupo 1101329" clip-path="url(#clip-path-5)">
              <path id="Trazado_915224" data-name="Trazado 915224" d="M400.836,170.453c-7.3,4.814-13.377,11.965-15.393,20.477s.644,18.343,7.657,23.57c7.347,5.475,17.632,5.12,25.55,9.732,9.709,5.654,13.936,19.12,9.2,29.309" transform="translate(-279.562 -130.937)" fill="none" stroke="#fff" stroke-linecap="round" stroke-linejoin="round" stroke-width="1"/>
              <path id="Trazado_915225" data-name="Trazado 915225" d="M270.866,123.8c.766,4.17,5.087,6.675,9.167,7.828a27.477,27.477,0,0,0,15.1.2,19.987,19.987,0,0,0,11.839-9.088" transform="translate(-244.542 -116.269)" fill="none" stroke="#fff" stroke-linecap="round" stroke-linejoin="round" stroke-width="1"/>
              <path id="Trazado_915226" data-name="Trazado 915226" d="M272.531,203.9c2.16-7.535,4.365-15.173,8.437-21.873s10.311-12.459,17.955-14.2c4.671-1.062,9.538-.577,14.321-.87s9.874-1.585,12.934-5.271c2.637-3.18,3.279-7.657,2.6-11.731s-2.552-7.845-4.494-11.491" transform="translate(-245.054 -121.103)" fill="none" stroke="#fff" stroke-linecap="round" stroke-linejoin="round" stroke-width="1"/>
            </g>
          </g>
          <g id="Grupo_1101332" data-name="Grupo 1101332">
            <g id="Grupo_1101331" data-name="Grupo 1101331" clip-path="url(#clip-path-2)">
              <path id="Trazado_915228" data-name="Trazado 915228" d="M82.877,69.994a1.746,1.746,0,0,0-2.128.12L77.52,72.87a1.74,1.74,0,0,1-1.711.317L70.6,71.339a1.744,1.744,0,0,1-1.131-1.324L68.7,65.842a1.746,1.746,0,0,0-1.578-1.434,30.6,30.6,0,0,0-7.232.376,1.74,1.74,0,0,0-1.416,1.587l-.335,4.235a1.737,1.737,0,0,1-.986,1.434l-4.991,2.378a1.74,1.74,0,0,1-1.735-.137l-3.5-2.407a1.741,1.741,0,0,0-2.126.1,30.63,30.63,0,0,0-4.847,5.38,1.747,1.747,0,0,0,.12,2.128l2.756,3.229a1.74,1.74,0,0,1,.317,1.711L41.3,89.634a1.74,1.74,0,0,1-1.324,1.13l-4.174.772a1.747,1.747,0,0,0-1.434,1.578,30.6,30.6,0,0,0,.376,7.232,1.742,1.742,0,0,0,1.587,1.416l4.235.335a1.74,1.74,0,0,1,1.434.987l2.378,4.99a1.74,1.74,0,0,1-.137,1.736l-2.407,3.5a1.742,1.742,0,0,0,.1,2.126,30.626,30.626,0,0,0,5.38,4.846,1.746,1.746,0,0,0,2.128-.12l3.229-2.756a1.74,1.74,0,0,1,1.711-.317l5.21,1.847a1.743,1.743,0,0,1,1.13,1.324l.772,4.174a1.747,1.747,0,0,0,1.578,1.434,30.6,30.6,0,0,0,7.233-.376,1.74,1.74,0,0,0,1.416-1.588l.335-4.234a1.741,1.741,0,0,1,.986-1.434l4.991-2.378a1.743,1.743,0,0,1,1.736.137l3.5,2.407a1.743,1.743,0,0,0,2.126-.1,30.575,30.575,0,0,0,4.845-5.381,1.746,1.746,0,0,0-.118-2.128l-2.756-3.228a1.741,1.741,0,0,1-.317-1.712l1.847-5.21a1.739,1.739,0,0,1,1.324-1.13l4.174-.773a1.745,1.745,0,0,0,1.434-1.578,30.591,30.591,0,0,0-.376-7.231,1.741,1.741,0,0,0-1.587-1.417l-4.234-.335a1.74,1.74,0,0,1-1.434-.986L85.814,82.2a1.74,1.74,0,0,1,.138-1.735l2.407-3.5a1.744,1.744,0,0,0-.1-2.126,30.639,30.639,0,0,0-5.381-4.847M75.8,105.654a15.107,15.107,0,1,1-.192-21.363,15.107,15.107,0,0,1,.192,21.363" transform="translate(-10.543 -19.778)" fill="#d6ceff"/>
              <path id="Trazado_915229" data-name="Trazado 915229" d="M193.367,318.976c0-6.774-38.977-12.265-87.057-12.265S19.254,312.2,19.254,318.976s38.977,12.264,87.057,12.264,87.057-5.491,87.057-12.264" transform="translate(-5.919 -94.284)" fill="#bbadff"/>
              <path id="Trazado_915230" data-name="Trazado 915230" d="M233.863,380.712A42.773,42.773,0,0,0,221.08,399.98c-.911,2.844-1.461,6.159.189,8.648,1.723,2.6,5.4,3.333,8.38,2.424s5.384-3.115,8.423-6.3a23.522,23.522,0,0,0,15.8,14.566c4.408,1.177,9.459.907,13.076-1.876,4.505-3.465,5.636-9.676,6.27-14.553,6.895,5.747,14.07,11.533,22.6,14.329s18.82,2,25.256-4.257c4.883-4.749,6.825-11.935,6.454-18.736s-2.813-13.317-5.632-19.518Z" transform="translate(-67.693 -115.187)" fill="#34a5d1"/>
              <path id="Trazado_915231" data-name="Trazado 915231" d="M320.47,420.729a7.531,7.531,0,0,0-5.906,1.445,21.223,21.223,0,0,0-3.034,2.779,48.858,48.858,0,0,0,12.362,6.368c.738.242,1.492.447,2.252.633a17.993,17.993,0,0,0-.572-5.849c-.754-2.475-2.583-4.787-5.1-5.376" transform="translate(-95.766 -129.288)" fill="#228fba"/>
              <path id="Trazado_915232" data-name="Trazado 915232" d="M355.022,395.177a48.054,48.054,0,0,0-3.816-15.306c-3.478,1.28-6.594,3.766-9.554,6.11-4.045,3.2-8.671,6.444-13.821,6.13A11.011,11.011,0,0,1,318,377.8l-6.557.447a29.566,29.566,0,0,0-1.777,10.126c.183,4.068,2.134,8.311,5.8,10.077,3.4,1.637,7.592.893,10.981,2.563,3.077,1.516,4.962,4.76,7.9,6.539,4.185,2.538,9.778,1.547,13.869-1.143a28.671,28.671,0,0,0,6.685-6.5,29.472,29.472,0,0,0,.126-4.732" transform="translate(-95.186 -116.137)" fill="#228fba"/>
              <path id="Trazado_915233" data-name="Trazado 915233" d="M248.913,390.571c-3.274-.907-6.732-1.141-9.906-2.353a12.515,12.515,0,0,1-3.8-2.268,42.567,42.567,0,0,0-4.307,4.9c5.342,3.33,12.677,3.652,17.511,7.88a16.582,16.582,0,0,1,5.2,11.68,28.656,28.656,0,0,1-1.6,10.266,22.459,22.459,0,0,0,5.15,2.1,17.732,17.732,0,0,0,8.334.288,24.734,24.734,0,0,0-16.582-32.492" transform="translate(-70.98 -118.642)" fill="#228fba"/>
            </g>
          </g>
          <g id="Grupo_1101334" data-name="Grupo 1101334" transform="translate(152.516 259.523)">
            <g id="Grupo_1101333" data-name="Grupo 1101333" clip-path="url(#clip-path-7)">
              <path id="Trazado_915234" data-name="Trazado 915234" d="M249.039,413.461A27.609,27.609,0,0,0,271,374.237" transform="translate(-229.072 -374.565)" fill="none" stroke="#fff" stroke-linecap="round" stroke-linejoin="round" stroke-width="1"/>
            </g>
          </g>
          <g id="Grupo_1101408" data-name="Grupo 1101408">
            <g id="Grupo_1101407" data-name="Grupo 1101407" clip-path="url(#clip-path-2)">
              <path id="Trazado_915236" data-name="Trazado 915236" d="M185.622,366.6l-1.69-3.63a1.262,1.262,0,0,1,.111-1.256l1.765-2.518a1.264,1.264,0,0,0-.06-1.542,22.159,22.159,0,0,0-3.865-3.546,1.262,1.262,0,0,0-1.54.074l-2.358,1.976a1.259,1.259,0,0,1-1.241.218l-3.761-1.372a1.258,1.258,0,0,1-.81-.966l-.533-3.029a1.262,1.262,0,0,0-1.131-1.047,22.127,22.127,0,0,0-5.239.226,1.265,1.265,0,0,0-1.039,1.142l-.27,3.063a1.26,1.26,0,0,1-.723,1.032l-3.63,1.69a1.26,1.26,0,0,1-1.256-.11l-2.518-1.765a1.264,1.264,0,0,0-1.542.06,22.18,22.18,0,0,0-3.546,3.864,1.261,1.261,0,0,0,.074,1.54l1.975,2.358a1.26,1.26,0,0,1,.218,1.242l-1.371,3.762a1.261,1.261,0,0,1-.966.81l-3.029.533a1.262,1.262,0,0,0-1.048,1.13,22.17,22.17,0,0,0,.226,5.24,1.265,1.265,0,0,0,1.142,1.039l3.063.269a1.261,1.261,0,0,1,1.032.724l1.69,3.63a1.258,1.258,0,0,1-.111,1.256l-1.765,2.518a1.264,1.264,0,0,0,.06,1.542A22.154,22.154,0,0,0,155.8,390.3a1.261,1.261,0,0,0,1.54-.074l2.358-1.976a1.262,1.262,0,0,1,1.241-.218L164.7,389.4a1.261,1.261,0,0,1,.81.966l.533,3.029a1.261,1.261,0,0,0,1.13,1.048,22.163,22.163,0,0,0,5.239-.227,1.264,1.264,0,0,0,1.039-1.142l.27-3.063a1.26,1.26,0,0,1,.724-1.032l3.63-1.69a1.259,1.259,0,0,1,1.256.111l2.517,1.765a1.265,1.265,0,0,0,1.543-.06,22.157,22.157,0,0,0,3.546-3.864,1.263,1.263,0,0,0-.074-1.54l-1.976-2.358a1.26,1.26,0,0,1-.218-1.242l1.371-3.761a1.262,1.262,0,0,1,.966-.81l3.03-.533a1.26,1.26,0,0,0,1.047-1.13,22.164,22.164,0,0,0-.226-5.24,1.263,1.263,0,0,0-1.141-1.039l-3.063-.27A1.261,1.261,0,0,1,185.622,366.6Zm-5.839,5.532a10.941,10.941,0,1,0-10.941,10.941A10.941,10.941,0,0,0,179.784,372.134Z" transform="translate(-45.046 -107.56)" fill="none" stroke="#fff" stroke-linecap="round" stroke-linejoin="round" stroke-width="1"/>
              <path id="Trazado_915237" data-name="Trazado 915237" d="M149.9,58.683l-1.179-3.827A1.26,1.26,0,0,1,149,53.628l2.091-2.254a1.266,1.266,0,0,0,.151-1.537A22.18,22.18,0,0,0,147.9,45.8a1.261,1.261,0,0,0-1.535-.136l-2.6,1.636a1.26,1.26,0,0,1-1.26.047l-3.539-1.871a1.263,1.263,0,0,1-.671-1.067l-.115-3.074a1.26,1.26,0,0,0-.977-1.191,22.157,22.157,0,0,0-5.221-.49,1.265,1.265,0,0,0-1.185.99l-.684,3a1.262,1.262,0,0,1-.857.924l-3.826,1.18a1.263,1.263,0,0,1-1.229-.281l-2.254-2.092a1.264,1.264,0,0,0-1.536-.15,22.133,22.133,0,0,0-4.039,3.345,1.263,1.263,0,0,0-.136,1.535l1.637,2.6a1.26,1.26,0,0,1,.047,1.26l-1.871,3.54a1.26,1.26,0,0,1-1.067.67l-3.074.115a1.262,1.262,0,0,0-1.192.978,22.157,22.157,0,0,0-.489,5.221,1.265,1.265,0,0,0,.99,1.185l3,.684a1.259,1.259,0,0,1,.924.857l1.18,3.826a1.26,1.26,0,0,1-.281,1.229l-2.091,2.254a1.266,1.266,0,0,0-.151,1.537,22.189,22.189,0,0,0,3.346,4.039,1.261,1.261,0,0,0,1.535.136l2.6-1.637a1.26,1.26,0,0,1,1.26-.047l3.54,1.871a1.26,1.26,0,0,1,.67,1.067l.115,3.074a1.262,1.262,0,0,0,.977,1.192,22.2,22.2,0,0,0,5.222.489,1.264,1.264,0,0,0,1.184-.99l.684-3a1.262,1.262,0,0,1,.857-.924l3.826-1.18a1.263,1.263,0,0,1,1.229.281l2.254,2.092a1.264,1.264,0,0,0,1.536.15,22.133,22.133,0,0,0,4.039-3.345,1.261,1.261,0,0,0,.136-1.535l-1.637-2.6a1.264,1.264,0,0,1-.047-1.26l1.871-3.54a1.26,1.26,0,0,1,1.067-.67l3.074-.115a1.262,1.262,0,0,0,1.192-.977,22.167,22.167,0,0,0,.49-5.222,1.267,1.267,0,0,0-.99-1.185l-3-.684A1.263,1.263,0,0,1,149.9,58.683Zm-6.537,4.685a10.941,10.941,0,1,0-12.329,9.349A10.941,10.941,0,0,0,143.366,63.368Z" transform="translate(-33.88 -12.187)" fill="none" stroke="#fff" stroke-linecap="round" stroke-linejoin="round" stroke-width="1"/>
              <path id="Trazado_915238" data-name="Trazado 915238" d="M123.263,354.532c12.918.452,18.438-10.362,20.04-13.443,4.894-9.412,11.037-13.568,25.7-14.471" transform="translate(-37.892 -100.404)" fill="none" stroke="#17014e" stroke-linecap="round" stroke-linejoin="round" stroke-width="1"/>
              <g id="Grupo_1101337" data-name="Grupo 1101337" transform="translate(14.141 240.686)" opacity="0.09" style="mix-blend-mode: multiply;isolation: isolate">
                <g id="Grupo_1101336" data-name="Grupo 1101336">
                  <g id="Grupo_1101335" data-name="Grupo 1101335" clip-path="url(#clip-path-9)">
                    <path id="Trazado_915239" data-name="Trazado 915239" d="M89.8,380.933a571.558,571.558,0,0,1-62.469-2.439,7.282,7.282,0,0,1-6.606-6.711,143.391,143.391,0,0,1-.091-17.4,7.269,7.269,0,0,1,7.431-6.873c20.27.45,40.644.925,62.034,1.628a7.257,7.257,0,0,1,7.008,6.5,90.364,90.364,0,0,1-.165,18.863,7.276,7.276,0,0,1-7.141,6.424" transform="translate(-20.418 -347.513)" fill="#17014e"/>
                  </g>
                </g>
              </g>
              <path id="Trazado_915240" data-name="Trazado 915240" d="M86.5,376.573a571.65,571.65,0,0,1-62.516.287,7.281,7.281,0,0,1-6.893-6.416,143.311,143.311,0,0,1-.849-17.376,7.269,7.269,0,0,1,7.124-7.191c20.27-.434,40.645-.849,62.046-1.078a7.257,7.257,0,0,1,7.285,6.193,90.375,90.375,0,0,1,.657,18.852,7.275,7.275,0,0,1-6.854,6.729" transform="translate(-4.991 -105.993)" fill="#7f7aff"/>
              <path id="Trazado_915241" data-name="Trazado 915241" d="M21.148,386.316a7.327,7.327,0,0,0,4.345,1.707,571.283,571.283,0,0,0,62.516-.287,7.275,7.275,0,0,0,6.842-6.621,9.814,9.814,0,0,1-5.387,3.971A26.818,26.818,0,0,1,81,385.9c-20-.213-40.005-.414-59.849.418" transform="translate(-6.501 -117.156)" fill="#5247bf"/>
              <path id="Trazado_915242" data-name="Trazado 915242" d="M82.375,387.939c-18.961-.2-37.92-.393-56.744.3" transform="translate(-7.879 -119.196)" fill="none" stroke="#17014e" stroke-linecap="round" stroke-linejoin="round" stroke-width="1"/>
              <path id="Trazado_915243" data-name="Trazado 915243" d="M122,383.7a10.689,10.689,0,0,1-3.876,2.181,17.172,17.172,0,0,1-3.751.709" transform="translate(-35.157 -117.951)" fill="none" stroke="#17014e" stroke-linecap="round" stroke-linejoin="round" stroke-width="1"/>
              <path id="Trazado_915244" data-name="Trazado 915244" d="M38.723,345.708c16.906-.354,33.973-.679,51.731-.879" transform="translate(-11.904 -106.002)" fill="none" stroke="#17014e" stroke-linecap="round" stroke-linejoin="round" stroke-width="1"/>
              <path id="Trazado_915245" data-name="Trazado 915245" d="M16.412,362.449c-.145-3-.195-5.978-.172-8.936a7.269,7.269,0,0,1,7.124-7.191l3.671-.078" transform="translate(-4.991 -106.437)" fill="none" stroke="#17014e" stroke-linecap="round" stroke-linejoin="round" stroke-width="1"/>
              <path id="Trazado_915246" data-name="Trazado 915246" d="M28.2,378.088a1,1,0,0,1-.762-.28,1.057,1.057,0,0,1-.267-.759v-1.692a1.135,1.135,0,0,1,.258-.785,1.17,1.17,0,0,1,1.538,0,1.135,1.135,0,0,1,.258.784v1.692a1.053,1.053,0,0,1-.27.754.988.988,0,0,1-.754.285m0-.754q.17,0,.17-.312V375.3q0-.015,0-.048a.339.339,0,0,0-.007-.052c0-.012-.007-.028-.012-.048a.126.126,0,0,0-.021-.046l-.03-.035a.089.089,0,0,0-.042-.025.176.176,0,0,0-.056-.008.189.189,0,0,0-.071.012.1.1,0,0,0-.048.041c-.012.019-.022.037-.03.052a.22.22,0,0,0-.017.066c0,.028,0,.049,0,.061v1.747q0,.312.17.312" transform="translate(-8.352 -115.056)" fill="#fff"/>
              <path id="Trazado_915247" data-name="Trazado 915247" d="M28.343,368.552H26.875l-.26.673H25.292l1.688-3.862h1.28l1.689,3.862H28.6Zm-.359-.938-.375-.971-.375.971Z" transform="translate(-7.775 -112.314)" fill="#ffcf4e"/>
              <path id="Trazado_915248" data-name="Trazado 915248" d="M109.983,379.083v-2.889l-.462.248v-.621l.128-.077.2-.118c.059-.035.121-.073.185-.116a1.412,1.412,0,0,0,.132-.094h.661v3.667Z" transform="translate(-33.667 -115.404)" fill="#fff"/>
              <path id="Trazado_915249" data-name="Trazado 915249" d="M113.787,379.13a1,1,0,0,1-.762-.281,1.054,1.054,0,0,1-.267-.758V376.4a1.135,1.135,0,0,1,.258-.785,1.17,1.17,0,0,1,1.538,0,1.134,1.134,0,0,1,.258.784v1.692a1.053,1.053,0,0,1-.27.754.988.988,0,0,1-.754.285m0-.754q.17,0,.17-.312v-1.718c0-.01,0-.026,0-.048a.34.34,0,0,0-.007-.052c0-.012-.007-.028-.012-.048a.126.126,0,0,0-.021-.046.418.418,0,0,0-.03-.035.089.089,0,0,0-.042-.025.176.176,0,0,0-.056-.008.189.189,0,0,0-.071.012.1.1,0,0,0-.049.041l-.03.052a.215.215,0,0,0-.017.066c0,.028,0,.049,0,.061v1.747q0,.312.17.312" transform="translate(-34.662 -115.377)" fill="#fff"/>
              <path id="Trazado_915250" data-name="Trazado 915250" d="M117.374,379.13a1,1,0,0,1-.762-.281,1.054,1.054,0,0,1-.267-.758V376.4a1.135,1.135,0,0,1,.258-.785,1.17,1.17,0,0,1,1.538,0,1.135,1.135,0,0,1,.258.784v1.692a1.053,1.053,0,0,1-.27.754.988.988,0,0,1-.754.285m0-.754q.17,0,.17-.312v-1.718c0-.01,0-.026,0-.048a.455.455,0,0,0-.007-.052c0-.012-.007-.028-.012-.048a.116.116,0,0,0-.021-.046c-.009-.011-.019-.023-.03-.035a.089.089,0,0,0-.042-.025.177.177,0,0,0-.056-.008.189.189,0,0,0-.071.012.1.1,0,0,0-.049.041l-.03.052a.215.215,0,0,0-.017.066c0,.028,0,.049,0,.061v1.747q0,.312.17.312" transform="translate(-35.765 -115.377)" fill="#fff"/>
              <path id="Trazado_915251" data-name="Trazado 915251" d="M113.786,367.231h-3.322l-.587,1.524h-3l3.822-8.744h2.9l3.822,8.744h-3.048Zm-.812-2.124-.849-2.2-.85,2.2Z" transform="translate(-32.855 -110.669)" fill="#ffcf4e"/>
              <path id="Trazado_915252" data-name="Trazado 915252" d="M78.675,368.976H43.442a1.807,1.807,0,0,1,0-3.613H78.675a1.807,1.807,0,1,1,0,3.613" transform="translate(-12.799 -112.314)" fill="#ffcf4e"/>
              <path id="Trazado_915253" data-name="Trazado 915253" d="M56.532,366.3h4.274a1.156,1.156,0,0,1,0,2.313H56.532a1.156,1.156,0,1,1,0-2.313" transform="translate(-17.022 -112.603)" fill="#17014e"/>
              <path id="Trazado_915254" data-name="Trazado 915254" d="M57.049,379.111v-.591l.851-1.32.083-.125c.042-.062.073-.11.093-.143s.047-.078.081-.138a1.2,1.2,0,0,0,.076-.154,1.179,1.179,0,0,0,.046-.144.594.594,0,0,0,.021-.15.267.267,0,0,0-.075-.213.19.19,0,0,0-.124-.044.265.265,0,0,0-.064.008.227.227,0,0,0-.152.125.784.784,0,0,0-.051.33v.195h-.805v-.212a1.583,1.583,0,0,1,.061-.455,1.107,1.107,0,0,1,.185-.365.808.808,0,0,1,.332-.249,1.239,1.239,0,0,1,.486-.089,1.059,1.059,0,0,1,.769.257.963.963,0,0,1,.265.723,1.3,1.3,0,0,1-.008.148.721.721,0,0,1-.032.15c-.016.052-.029.1-.039.132a.737.737,0,0,1-.061.14c-.03.057-.051.1-.063.123a1.044,1.044,0,0,1-.08.132c-.042.062-.066.1-.076.118s-.039.059-.087.128l-.082.117-.621.918H59.02v.646Z" transform="translate(-17.531 -115.393)" fill="#fff"/>
              <path id="Trazado_915255" data-name="Trazado 915255" d="M61.634,379.214a1.4,1.4,0,0,1-.427-.057.786.786,0,0,1-.284-.152.655.655,0,0,1-.168-.25,1.288,1.288,0,0,1-.082-.317,3.241,3.241,0,0,1-.02-.387h.8a2.172,2.172,0,0,0,.021.35.3.3,0,0,0,.07.163.178.178,0,0,0,.123.04h.024c.087-.006.141-.061.161-.165a3.413,3.413,0,0,0,.031-.568,2.228,2.228,0,0,0-.01-.23,1.077,1.077,0,0,0-.035-.184.286.286,0,0,0-.076-.132.185.185,0,0,0-.127-.045.2.2,0,0,0-.169.08.547.547,0,0,0-.085.265H60.66l.084-2.155H62.5v.672H61.4l-.046.684a.334.334,0,0,1,.157-.1,1.115,1.115,0,0,1,.265-.064.843.843,0,0,1,.124-.009.627.627,0,0,1,.526.265,1.56,1.56,0,0,1,.234.938c0,.122,0,.231-.01.326a2.472,2.472,0,0,1-.038.288,1.1,1.1,0,0,1-.075.252.919.919,0,0,1-.125.2.625.625,0,0,1-.184.156,1.019,1.019,0,0,1-.258.094,1.584,1.584,0,0,1-.34.034" transform="translate(-18.645 -115.421)" fill="#fff"/>
              <path id="Trazado_915256" data-name="Trazado 915256" d="M42.136,356.5H27.257a1.626,1.626,0,1,1,0-3.252H42.136a1.626,1.626,0,1,1,0,3.252" transform="translate(-7.879 -108.589)" fill="#ff96c3"/>
              <path id="Trazado_915257" data-name="Trazado 915257" d="M63.024,356.5H59.246a1.626,1.626,0,1,1,0-3.252h3.777a1.626,1.626,0,1,1,0,3.252" transform="translate(-17.713 -108.589)" fill="#ff96c3"/>
              <g id="Grupo_1101340" data-name="Grupo 1101340" transform="translate(46.908 263.442)" opacity="0.09" style="mix-blend-mode: multiply;isolation: isolate">
                <g id="Grupo_1101339" data-name="Grupo 1101339">
                  <g id="Grupo_1101338" data-name="Grupo 1101338" clip-path="url(#clip-path-10)">
                    <path id="Trazado_915258" data-name="Trazado 915258" d="M79.855,394.818,76.1,388.583c1.256-.834,2.5-1.691,3.7-2.6l-12.072-5.618.179,12.974c1.32-.66,2.614-1.371,3.894-2.105q1.7,3.248,3.686,6.328Z" transform="translate(-67.727 -380.369)" fill="#17014e"/>
                  </g>
                </g>
              </g>
              <path id="Trazado_915259" data-name="Trazado 915259" d="M81.795,391.911,77.3,386.184c1.144-.981,2.271-1.984,3.356-3.03l-12.669-4.1,1.768,12.854c1.229-.817,2.426-1.681,3.607-2.567q2.081,3.015,4.433,5.828Z" transform="translate(-20.9 -116.524)" fill="#fff"/>
              <path id="Trazado_915260" data-name="Trazado 915260" d="M81.795,391.911,77.3,386.184c1.144-.981,2.271-1.984,3.356-3.03l-12.669-4.1,1.768,12.854c1.229-.817,2.426-1.681,3.607-2.567q2.081,3.015,4.433,5.828Z" transform="translate(-20.9 -116.524)" fill="none" stroke="#fff" stroke-linecap="round" stroke-linejoin="round" stroke-width="1"/>
              <path id="Trazado_915261" data-name="Trazado 915261" d="M257.73,37.68c41.81-23.472,81.007,12.431,61.37,34.544s-34.626,49.216-20.655,85.006" transform="translate(-79.227 -9.227)" fill="none" stroke="#17014e" stroke-linecap="round" stroke-linejoin="round" stroke-width="1"/>
              <g id="Grupo_1101343" data-name="Grupo 1101343" transform="translate(132.439 12.177)" opacity="0.09" style="mix-blend-mode: multiply;isolation: isolate">
                <g id="Grupo_1101342" data-name="Grupo 1101342">
                  <g id="Grupo_1101341" data-name="Grupo 1101341" clip-path="url(#clip-path-11)">
                    <path id="Trazado_915262" data-name="Trazado 915262" d="M260.348,47.869a43.226,43.226,0,0,0-6.215-26.624,7.779,7.779,0,0,0-7.5-3.613,187.765,187.765,0,0,0-27.354,5.225,7.8,7.8,0,0,0-5.7,6.842c-.039.43-.064.861-.091,1.292a25.528,25.528,0,0,0-7.426,2.043,28.1,28.1,0,0,0-13.375,12.542,10.512,10.512,0,0,0-1.459,5.069,4.76,4.76,0,0,0,2.627,4.306c1.727.72,3.737.01,5.273-1.057,1.7-1.182,3.08-2.78,4.765-3.985s3.885-2,5.828-1.281a14.052,14.052,0,0,1,2.976,1.961,10.733,10.733,0,0,0,4.63,1.813,43.8,43.8,0,0,0,2.1,4.138,7.766,7.766,0,0,0,7.28,3.873,110.05,110.05,0,0,0,28.387-5.941,7.833,7.833,0,0,0,5.254-6.6" transform="translate(-191.221 -17.581)" fill="#17014e"/>
                  </g>
                </g>
              </g>
              <path id="Trazado_915263" data-name="Trazado 915263" d="M267.984,38.8a43.224,43.224,0,0,0-8.395-26.019,7.779,7.779,0,0,0-7.774-2.98,187.787,187.787,0,0,0-26.828,7.469,7.8,7.8,0,0,0-5.117,7.29,45.558,45.558,0,0,0,8.049,26.265,7.765,7.765,0,0,0,7.576,3.258,110.072,110.072,0,0,0,27.8-8.268,7.834,7.834,0,0,0,4.689-7.016" transform="translate(-67.589 -2.965)" fill="#fff"/>
              <path id="Trazado_915264" data-name="Trazado 915264" d="M252.724,63.535a1.578,1.578,0,1,0-1.479,2.306,1.663,1.663,0,0,0,1.479-2.306" transform="translate(-76.786 -19.293)" fill="#17014e"/>
              <path id="Trazado_915265" data-name="Trazado 915265" d="M220.57,36.717c-2.456,5.8-4.951,11.794-5,18.094s2.975,13.058,8.783,15.5a12.02,12.02,0,0,0,16.39-13.721" transform="translate(-66.268 -11.287)" fill="none" stroke="#17014e" stroke-linecap="round" stroke-linejoin="round" stroke-width="1"/>
              <path id="Trazado_915266" data-name="Trazado 915266" d="M233.868,53.344c1.941-8.323-.6-17.1-4.524-24.691a13.178,13.178,0,0,0-2.813-4,5.125,5.125,0,0,0-4.463-1.319,7.852,7.852,0,0,0-2.2,5.394A45.561,45.561,0,0,0,227.92,55a7.831,7.831,0,0,0,2.664,2.392,3.04,3.04,0,0,0,1.017-.309c1.335-.694,1.925-2.269,2.267-3.734" transform="translate(-67.589 -7.139)" fill="#17014e"/>
              <path id="Trazado_915267" data-name="Trazado 915267" d="M256.015,52.307q2.136-.59,4.272-1.271a60.788,60.788,0,0,0-8.014-38.6q-2.5.615-4.975,1.292a54.228,54.228,0,0,1,8.717,38.576" transform="translate(-76.02 -3.824)" fill="#8237cc"/>
              <path id="Trazado_915268" data-name="Trazado 915268" d="M221.143,33.376c-5.754-1.93-12.193-.848-17.624,2.123a28.094,28.094,0,0,0-12.292,13.606,10.514,10.514,0,0,0-1.035,5.172,4.761,4.761,0,0,0,2.973,4.075c1.782.574,3.725-.3,5.17-1.49,1.6-1.319,2.839-3.025,4.419-4.365s3.707-2.318,5.7-1.758a14.015,14.015,0,0,1,3.128,1.708,10.894,10.894,0,0,0,9.71.565,10.755,10.755,0,0,0,4.1-3.209,40.466,40.466,0,0,0-4.251-16.426" transform="translate(-58.453 -9.962)" fill="#8237cc"/>
              <g id="Grupo_1101346" data-name="Grupo 1101346" transform="translate(140.03 24.506)" opacity="0.6" style="mix-blend-mode: soft-light;isolation: isolate">
                <g id="Grupo_1101345" data-name="Grupo 1101345">
                  <g id="Grupo_1101344" data-name="Grupo 1101344" clip-path="url(#clip-path-12)">
                    <path id="Trazado_915269" data-name="Trazado 915269" d="M215.192,35.437c-9.427,1.3-15.292,7.7-12.162,9.931,2.51,1.788,4.469-4.4,11.8-4.922,6.158-.434,4.974-5.645.366-5.01" transform="translate(-202.182 -35.383)" fill="#fff"/>
                  </g>
                </g>
              </g>
              <g id="Grupo_1101349" data-name="Grupo 1101349" transform="translate(121.042 46.702)" opacity="0.09" style="mix-blend-mode: multiply;isolation: isolate">
                <g id="Grupo_1101348" data-name="Grupo 1101348">
                  <g id="Grupo_1101347" data-name="Grupo 1101347" clip-path="url(#clip-path-13)">
                    <path id="Trazado_915270" data-name="Trazado 915270" d="M177.571,68.568a4.821,4.821,0,0,1,1.41,1.527,1.644,1.644,0,0,1-.255,1.93,1.615,1.615,0,0,1-1.8.055,4.355,4.355,0,0,1-1.328-1.357,4.131,4.131,0,0,1-.807-1.614,1.525,1.525,0,0,1,.618-1.592c.527-.3,1.134.224,2.16,1.052" transform="translate(-174.766 -67.43)" fill="#17014e"/>
                  </g>
                </g>
              </g>
              <path id="Trazado_915271" data-name="Trazado 915271" d="M176.743,68.419a4.807,4.807,0,0,1,1.22,1.682,1.643,1.643,0,0,1-.479,1.887,1.615,1.615,0,0,1-1.792-.157,4.364,4.364,0,0,1-1.16-1.5,4.152,4.152,0,0,1-.611-1.7,1.526,1.526,0,0,1,.8-1.508c.559-.238,1.1.356,2.021,1.3" transform="translate(-53.463 -20.617)" fill="#8237cc"/>
              <g id="Grupo_1101352" data-name="Grupo 1101352" transform="translate(120.852 47.231)" opacity="0.6" style="mix-blend-mode: soft-light;isolation: isolate">
                <g id="Grupo_1101351" data-name="Grupo 1101351">
                  <g id="Grupo_1101350" data-name="Grupo 1101350" clip-path="url(#clip-path-14)">
                    <path id="Trazado_915272" data-name="Trazado 915272" d="M174.975,68.194c.975.026,1.251,1.978.414,1.867-1.015-.134-1.191-1.887-.414-1.867" transform="translate(-174.492 -68.194)" fill="#fff"/>
                  </g>
                </g>
              </g>
              <g id="Grupo_1101355" data-name="Grupo 1101355" transform="translate(123.987 38.617)" opacity="0.09" style="mix-blend-mode: multiply;isolation: isolate">
                <g id="Grupo_1101354" data-name="Grupo 1101354">
                  <g id="Grupo_1101353" data-name="Grupo 1101353" clip-path="url(#clip-path-15)">
                    <path id="Trazado_915273" data-name="Trazado 915273" d="M181.914,57.723a4.857,4.857,0,0,1,.224,2.21,1.667,1.667,0,0,1-1.517,1.4,1.624,1.624,0,0,1-1.342-1.026,4.233,4.233,0,0,1-.26-1.75,4.339,4.339,0,0,1,.27-1.752,1.668,1.668,0,0,1,1.334-1.049c.594-.036.918.54,1.291,1.964" transform="translate(-179.018 -55.757)" fill="#17014e"/>
                  </g>
                </g>
              </g>
              <path id="Trazado_915274" data-name="Trazado 915274" d="M181.186,56.9a4.863,4.863,0,0,1-.049,2.221,1.668,1.668,0,0,1-1.678,1.205,1.625,1.625,0,0,1-1.207-1.183,4.252,4.252,0,0,1-.042-1.77,4.341,4.341,0,0,1,.483-1.7,1.668,1.668,0,0,1,1.453-.877c.594.037.845.648,1.04,2.108" transform="translate(-54.76 -16.843)" fill="#8237cc"/>
              <g id="Grupo_1101358" data-name="Grupo 1101358" transform="translate(124.111 38.438)" opacity="0.6" style="mix-blend-mode: soft-light;isolation: isolate">
                <g id="Grupo_1101357" data-name="Grupo 1101357">
                  <g id="Grupo_1101356" data-name="Grupo 1101356" clip-path="url(#clip-path-16)">
                    <path id="Trazado_915275" data-name="Trazado 915275" d="M180.338,55.631c.691.64-.4,1.895-.934,1.3-.647-.726.384-1.806.934-1.3" transform="translate(-179.197 -55.499)" fill="#fff"/>
                  </g>
                </g>
              </g>
              <g id="Grupo_1101361" data-name="Grupo 1101361" transform="translate(140.805 49.673)" opacity="0.09" style="mix-blend-mode: multiply;isolation: isolate">
                <g id="Grupo_1101360" data-name="Grupo 1101360">
                  <g id="Grupo_1101359" data-name="Grupo 1101359" clip-path="url(#clip-path-17)">
                    <path id="Trazado_915276" data-name="Trazado 915276" d="M203.481,74.533a4.861,4.861,0,0,1,.772-2.083,1.667,1.667,0,0,1,1.979-.591,1.624,1.624,0,0,1,.754,1.512,4.237,4.237,0,0,1-.537,1.686,4.347,4.347,0,0,1-1.013,1.454,1.671,1.671,0,0,1-1.66.355c-.549-.23-.587-.889-.294-2.332" transform="translate(-203.3 -71.72)" fill="#17014e"/>
                  </g>
                </g>
              </g>
              <path id="Trazado_915277" data-name="Trazado 915277" d="M202.6,74.5a4.862,4.862,0,0,1,.416-2.182,1.667,1.667,0,0,1,1.855-.91,1.624,1.624,0,0,1,.994,1.366,4.252,4.252,0,0,1-.251,1.752,4.346,4.346,0,0,1-.759,1.6,1.668,1.668,0,0,1-1.578.625c-.58-.135-.727-.779-.677-2.251" transform="translate(-62.277 -21.933)" fill="#8237cc"/>
              <g id="Grupo_1101364" data-name="Grupo 1101364" transform="translate(140.909 50.234)" opacity="0.6" style="mix-blend-mode: soft-light;isolation: isolate">
                <g id="Grupo_1101363" data-name="Grupo 1101363">
                  <g id="Grupo_1101362" data-name="Grupo 1101362" clip-path="url(#clip-path-18)">
                    <path id="Trazado_915278" data-name="Trazado 915278" d="M204.5,72.626c.763.553-.171,1.929-.773,1.4-.729-.643.166-1.839.773-1.4" transform="translate(-203.45 -72.53)" fill="#fff"/>
                  </g>
                </g>
              </g>
              <path id="Trazado_915279" data-name="Trazado 915279" d="M407.335,134.128v-2.054a.647.647,0,0,1,.323-.56l1.366-.789a.647.647,0,0,0,.306-.73,11.361,11.361,0,0,0-1.029-2.486.648.648,0,0,0-.732-.3l-1.524.409a.646.646,0,0,1-.625-.168L403.967,126a.647.647,0,0,1-.168-.625l.409-1.524a.648.648,0,0,0-.3-.732,11.328,11.328,0,0,0-2.486-1.029.647.647,0,0,0-.73.306l-.789,1.366a.647.647,0,0,1-.56.323h-2.054a.647.647,0,0,1-.56-.323l-.789-1.366a.647.647,0,0,0-.73-.306,11.36,11.36,0,0,0-2.486,1.029.648.648,0,0,0-.3.732l.409,1.524a.647.647,0,0,1-.168.625l-1.452,1.453a.647.647,0,0,1-.625.167l-1.524-.409a.647.647,0,0,0-.732.3,11.36,11.36,0,0,0-1.029,2.486.647.647,0,0,0,.306.73l1.366.789a.647.647,0,0,1,.323.56v2.054a.647.647,0,0,1-.323.56l-1.366.789a.647.647,0,0,0-.306.73,11.36,11.36,0,0,0,1.029,2.486.647.647,0,0,0,.732.3l1.524-.409a.647.647,0,0,1,.625.168l1.452,1.452a.647.647,0,0,1,.168.625l-.409,1.524a.647.647,0,0,0,.3.732,11.359,11.359,0,0,0,2.486,1.029.647.647,0,0,0,.73-.306l.789-1.366a.647.647,0,0,1,.56-.323h2.054a.647.647,0,0,1,.56.323l.789,1.366a.647.647,0,0,0,.73.306,11.36,11.36,0,0,0,2.486-1.029.647.647,0,0,0,.3-.732l-.409-1.524a.647.647,0,0,1,.168-.625l1.452-1.452a.647.647,0,0,1,.625-.168l1.524.409a.648.648,0,0,0,.732-.3,11.361,11.361,0,0,0,1.029-2.486.647.647,0,0,0-.306-.73l-1.366-.789A.647.647,0,0,1,407.335,134.128Z" transform="translate(-119.051 -37.523)" fill="none" stroke="#fff" stroke-linecap="round" stroke-linejoin="round" stroke-width="1"/>
              <path id="Trazado_915280" data-name="Trazado 915280" d="M101.135,47.153V45.1a.647.647,0,0,1,.323-.56l1.366-.789a.647.647,0,0,0,.306-.73,11.36,11.36,0,0,0-1.029-2.486.648.648,0,0,0-.732-.3l-1.524.409a.647.647,0,0,1-.625-.168l-1.452-1.452A.647.647,0,0,1,97.6,38.4l.409-1.524a.647.647,0,0,0-.3-.732,11.327,11.327,0,0,0-2.486-1.029.647.647,0,0,0-.73.306L93.7,36.784a.647.647,0,0,1-.56.323H91.089a.647.647,0,0,1-.56-.323l-.788-1.366a.649.649,0,0,0-.731-.306,11.327,11.327,0,0,0-2.486,1.029.647.647,0,0,0-.3.732l.409,1.524a.646.646,0,0,1-.168.625l-1.452,1.452a.647.647,0,0,1-.625.168l-1.524-.409a.648.648,0,0,0-.732.3A11.36,11.36,0,0,0,81.1,43.019a.647.647,0,0,0,.306.73l1.366.789a.647.647,0,0,1,.323.56v2.054a.647.647,0,0,1-.323.56l-1.366.789a.647.647,0,0,0-.306.73,11.36,11.36,0,0,0,1.029,2.486.647.647,0,0,0,.732.3l1.524-.409a.647.647,0,0,1,.625.168l1.452,1.452a.646.646,0,0,1,.168.625l-.409,1.524a.647.647,0,0,0,.3.732,11.361,11.361,0,0,0,2.486,1.029.649.649,0,0,0,.731-.306l.788-1.366a.647.647,0,0,1,.56-.323h2.054a.647.647,0,0,1,.56.323l.789,1.366a.647.647,0,0,0,.73.306,11.361,11.361,0,0,0,2.486-1.029.647.647,0,0,0,.3-.732L97.6,53.853a.647.647,0,0,1,.168-.625l1.452-1.452a.647.647,0,0,1,.625-.168l1.524.409a.648.648,0,0,0,.732-.3,11.36,11.36,0,0,0,1.029-2.486.648.648,0,0,0-.306-.731l-1.366-.788A.647.647,0,0,1,101.135,47.153Z" transform="translate(-24.924 -10.786)" fill="none" stroke="#17014e" stroke-linecap="round" stroke-linejoin="round" stroke-width="1"/>
              <path id="Trazado_915281" data-name="Trazado 915281" d="M202.55,428.547l.454-2.813a.9.9,0,0,1,.567-.7l2.045-.778a.9.9,0,0,0,.581-.933,15.756,15.756,0,0,0-.86-3.633.9.9,0,0,0-.936-.572l-2.178.222a.9.9,0,0,1-.819-.368l-1.668-2.311a.9.9,0,0,1-.091-.893l.9-2a.9.9,0,0,0-.247-1.069,15.722,15.722,0,0,0-3.177-1.96.9.9,0,0,0-1.068.258l-1.383,1.7a.9.9,0,0,1-.839.319l-2.813-.454a.9.9,0,0,1-.7-.567l-.778-2.045a.9.9,0,0,0-.933-.581,15.8,15.8,0,0,0-3.633.86.9.9,0,0,0-.571.936l.222,2.178a.9.9,0,0,1-.367.819l-2.311,1.668a.9.9,0,0,1-.893.091l-2-.9a.9.9,0,0,0-1.069.247,15.786,15.786,0,0,0-1.96,3.177.9.9,0,0,0,.258,1.069l1.7,1.382a.9.9,0,0,1,.319.839l-.455,2.813a.9.9,0,0,1-.567.7l-2.046.778a.9.9,0,0,0-.581.933,15.8,15.8,0,0,0,.86,3.633.9.9,0,0,0,.936.571l2.178-.222a.9.9,0,0,1,.819.367l1.668,2.311a.9.9,0,0,1,.091.893l-.9,2a.9.9,0,0,0,.248,1.069,15.786,15.786,0,0,0,3.177,1.96.9.9,0,0,0,1.068-.258l1.382-1.7a.9.9,0,0,1,.839-.319l2.813.454a.9.9,0,0,1,.7.567l.778,2.046a.9.9,0,0,0,.932.581,15.8,15.8,0,0,0,3.633-.859.9.9,0,0,0,.571-.936l-.222-2.179a.9.9,0,0,1,.368-.818l2.311-1.668a.9.9,0,0,1,.893-.091l2,.9a.9.9,0,0,0,1.069-.247,15.761,15.761,0,0,0,1.961-3.178.9.9,0,0,0-.258-1.068l-1.7-1.382A.9.9,0,0,1,202.55,428.547Z" transform="translate(-53.688 -125.841)" fill="none" stroke="#17014e" stroke-linecap="round" stroke-linejoin="round" stroke-width="1"/>
              <g id="Grupo_1101367" data-name="Grupo 1101367" transform="translate(15.535 55.727)" opacity="0.09" style="mix-blend-mode: multiply;isolation: isolate">
                <g id="Grupo_1101366" data-name="Grupo 1101366">
                  <g id="Grupo_1101365" data-name="Grupo 1101365" clip-path="url(#clip-path-19)">
                    <path id="Trazado_915282" data-name="Trazado 915282" d="M210.461,243.6l-35.639-84.852a9.98,9.98,0,0,0-.562-3.691c-1.9-6.171-12.465-31.44-16.123-40.889-2.82-7.284-6.422-17.056-10.615-21.877.708-1.793,2.753-2.985,3-4.909a3.578,3.578,0,0,0-2.981-3.679,5.84,5.84,0,0,0-4.785,1.59,15.51,15.51,0,0,0-2.817,3.651l-.488-.046a15.293,15.293,0,0,0-5.522-7.761,2.487,2.487,0,0,0-1.872-.65,2.112,2.112,0,0,0-1.387,2.08,11.5,11.5,0,0,0,2.045,5.945c-10.7-.405-25.305-.281-29.381-.479-5.958-.29-11.839-1.31-17.143,9.374-7.061,14.223-21.256,46.7-22.245,51.267a9.9,9.9,0,0,0-.224,2.881l-40.6,89.336a7.636,7.636,0,0,0,6.841,10.795l39.018.564a7.636,7.636,0,0,0,7.2-4.787l9.414-23.413,61.983.9,8.733,23.676a7.637,7.637,0,0,0,7.055,4.993l39.948.578a7.636,7.636,0,0,0,7.151-10.593M101.307,184.662l11.165-27.687c3.409-4.046,7.239-6.5,9.195-1.184s2.405,11.735,5.045,13.49a3.028,3.028,0,0,0,.542.286l5.751,15.554Z" transform="translate(-22.43 -80.461)" fill="#17014e"/>
                  </g>
                </g>
              </g>
              <path id="Trazado_915283" data-name="Trazado 915283" d="M142.638,225.546H80.649l-9.075,23.547a7.636,7.636,0,0,1-7.125,4.89H25.427a7.637,7.637,0,0,1-7-10.7L83.07,95.414a7.637,7.637,0,0,1,7-4.578H134.15a7.637,7.637,0,0,1,7,4.578l64.64,147.874a7.637,7.637,0,0,1-7,10.7H158.838a7.637,7.637,0,0,1-7.125-4.89Zm-15.144-39.615-15.846-41.019L95.793,185.931Z" transform="translate(-5.466 -27.923)" fill="#ef5e9c"/>
              <g id="Grupo_1101370" data-name="Grupo 1101370" transform="translate(52.173 62.913)" opacity="0.09" style="mix-blend-mode: multiply;isolation: isolate">
                <g id="Grupo_1101369" data-name="Grupo 1101369">
                  <g id="Grupo_1101368" data-name="Grupo 1101368" clip-path="url(#clip-path-20)">
                    <path id="Trazado_915284" data-name="Trazado 915284" d="M158.837,95.413a7.637,7.637,0,0,0-7-4.577H107.757a7.637,7.637,0,0,0-7,4.577L75.329,153.591l.429.573s-.288,5.285,3.913,5.645,6.665-2.382,10.569-2.033,4.336,5.692,7.9,7.589a6.749,6.749,0,0,0,9.079-2.123c1.988-2.845,3.207-2.213,8.221-.9,3.356.877,5.315,1.108,7.044.292l6.849-17.719,10.827,28.027a30.5,30.5,0,0,1,5.589-1.882c3.523-.767,8.672-.272,11.292,7.046s1.671,11.924,8.085,12.963a9.217,9.217,0,0,0,10.931-6.866c1.039-3.794.587-13.958,2.846-16.17,1.771-1.737,7.1-2.944,9.336-5.347Z" transform="translate(-75.329 -90.836)" fill="#17014e"/>
                  </g>
                </g>
              </g>
              <path id="Trazado_915285" data-name="Trazado 915285" d="M97.13,98.17c-6.855,14.324-20.578,47.007-21.5,51.583s.994,7.86,5.6,6.685,10.66-4.246,13.641,1.355,4.7,7.249,8.288,5.963,3.05-6.233,8.808-5.42,8.951,3.108,12.3-.987,7.144-6.6,9.177-1.317,2.574,11.7,5.239,13.415,4.111-2.078,9.124-1.942,10.479,8.175,11.2,15.4,14.093,8.943,15.628-2.169,0-15.448,5.24-17.345,8.13-2.71,6.143-8.853-12.918-31.257-16.713-40.652-8.966-22.969-14.86-24.46-34.351-.677-40.314-.88S102.279,87.41,97.13,98.17" transform="translate(-23.179 -27.186)" fill="#8237cc"/>
              <path id="Trazado_915286" data-name="Trazado 915286" d="M75.949,183.372c.741,1.976,2.57,2.983,5.449,2.249,4.608-1.174,10.66-4.246,13.641,1.355s4.7,7.249,8.288,5.963,3.049-6.233,8.808-5.421c4.924.7,7.972,2.475,10.847.416" transform="translate(-23.347 -56.369)" fill="none" stroke="#712bb5" stroke-linecap="round" stroke-linejoin="round" stroke-width="1"/>
              <g id="Grupo_1101373" data-name="Grupo 1101373" transform="translate(69.596 68.273)" opacity="0.6" style="mix-blend-mode: soft-light;isolation: isolate">
                <g id="Grupo_1101372" data-name="Grupo 1101372">
                  <g id="Grupo_1101371" data-name="Grupo 1101371" clip-path="url(#clip-path-21)">
                    <path id="Trazado_915287" data-name="Trazado 915287" d="M117.42,98.689c-5.844-1.885-15.448,20.326-16.712,28.818s3.071,12.015,8.311,6.323,19.6-31.528,8.4-35.142" transform="translate(-100.486 -98.576)" fill="#fff"/>
                  </g>
                </g>
              </g>
              <g id="Grupo_1101376" data-name="Grupo 1101376" transform="translate(62.72 109.632)" opacity="0.6" style="mix-blend-mode: soft-light;isolation: isolate">
                <g id="Grupo_1101375" data-name="Grupo 1101375">
                  <g id="Grupo_1101374" data-name="Grupo 1101374" clip-path="url(#clip-path-22)">
                    <path id="Trazado_915288" data-name="Trazado 915288" d="M97,158.539c6.465,2.211,1.937,11.44-3.32,9.147-6.369-2.778-1.83-10.908,3.32-9.147" transform="translate(-90.557 -158.292)" fill="#fff"/>
                  </g>
                </g>
              </g>
              <path id="Trazado_915289" data-name="Trazado 915289" d="M170.537,201.31c1.546-.653,3.294-2.189,6.517-2.1,5.014.136,10.48,8.176,11.2,15.4s14.093,8.944,15.628-2.168,0-15.448,5.24-17.345c3.081-1.116,5.35-1.857,6.292-3.527" transform="translate(-52.424 -58.89)" fill="none" stroke="#712bb5" stroke-linecap="round" stroke-linejoin="round" stroke-width="1"/>
              <path id="Trazado_915290" data-name="Trazado 915290" d="M143.858,187.42a7.7,7.7,0,0,0,1.454-1.4c3.35-4.1,7.144-6.6,9.177-1.317s2.574,11.7,5.239,13.415a2.527,2.527,0,0,0,2.608.16" transform="translate(-44.222 -55.856)" fill="none" stroke="#712bb5" stroke-linecap="round" stroke-linejoin="round" stroke-width="1"/>
              <path id="Trazado_915291" data-name="Trazado 915291" d="M173.268,85.744c-1.267-1.631-2.666-4.493-2.591-6.556a2.112,2.112,0,0,1,1.356-2.1,2.489,2.489,0,0,1,1.881.623,15.336,15.336,0,0,1,5.821,8.228,17.271,17.271,0,0,1,3.066-4.2,5.838,5.838,0,0,1,4.762-1.658,3.578,3.578,0,0,1,3.034,3.635c-.231,2.015-2.441,3.257-3.019,5.2" transform="translate(-52.466 -23.687)" fill="#8237cc"/>
              <path id="Trazado_915292" data-name="Trazado 915292" d="M173.268,85.744c-1.267-1.631-2.666-4.493-2.591-6.556a2.112,2.112,0,0,1,1.356-2.1,2.489,2.489,0,0,1,1.881.623,15.336,15.336,0,0,1,5.821,8.228,17.271,17.271,0,0,1,3.066-4.2,5.838,5.838,0,0,1,4.762-1.658,3.578,3.578,0,0,1,3.034,3.635c-.231,2.015-2.441,3.257-3.019,5.2" transform="translate(-52.466 -23.687)" fill="none" stroke="#712bb5" stroke-linecap="round" stroke-linejoin="round" stroke-width="1"/>
              <g id="Grupo_1101379" data-name="Grupo 1101379" transform="translate(131.32 142.975)" opacity="0.09" style="mix-blend-mode: multiply;isolation: isolate">
                <g id="Grupo_1101378" data-name="Grupo 1101378">
                  <g id="Grupo_1101377" data-name="Grupo 1101377" clip-path="url(#clip-path-23)">
                    <path id="Trazado_915293" data-name="Trazado 915293" d="M336.833,337.274a924.123,924.123,0,0,1-133.171-1.846,13.108,13.108,0,0,1-11.9-11.945,593.736,593.736,0,0,1,.035-101.509,13.079,13.079,0,0,1,11.577-11.94,613.484,613.484,0,0,1,134.3.172,13.063,13.063,0,0,1,11.583,12.362,955.89,955.89,0,0,1-.149,102.443,13.068,13.068,0,0,1-12.275,12.263" transform="translate(-189.605 -206.433)" fill="#17014e"/>
                  </g>
                </g>
              </g>
              <path id="Trazado_915294" data-name="Trazado 915294" d="M333.133,331.784a924.112,924.112,0,0,1-133.183-.228,13.106,13.106,0,0,1-12.044-11.8,593.789,593.789,0,0,1-1.2-101.5,13.081,13.081,0,0,1,11.431-12.08,613.5,613.5,0,0,1,134.292-1.459,13.063,13.063,0,0,1,11.732,12.221,955.518,955.518,0,0,1,1.1,102.437,13.066,13.066,0,0,1-12.125,12.411" transform="translate(-56.9 -62.011)" fill="#7f7aff"/>
              <path id="Trazado_915295" data-name="Trazado 915295" d="M190.277,374.97a13.077,13.077,0,0,0,11.264,8.469,924.213,924.213,0,0,0,133.184.228,13.067,13.067,0,0,0,12.125-12.412c.012-.251.021-.5.032-.752a20.218,20.218,0,0,1-9.626,6.953c-5.127,1.843-10.671,2.086-16.115,2.3-36.258,1.409-72.6,2.246-108.809-.058-7.839-.5-16.145-1.335-22.054-4.725" transform="translate(-58.492 -113.894)" fill="#5247bf"/>
              <path id="Trazado_915296" data-name="Trazado 915296" d="M185.263,276.935c-.466-19.737.068-39.26,1.444-58.375a13.08,13.08,0,0,1,11.431-12.08q22.185-2.689,44.594-3.761" transform="translate(-56.9 -62.317)" fill="none" stroke="#17014e" stroke-linecap="round" stroke-linejoin="round" stroke-width="1"/>
              <path id="Trazado_915297" data-name="Trazado 915297" d="M372.619,203.917q8.709.613,17.456,1.472" transform="translate(-114.545 -62.685)" fill="none" stroke="#17014e" stroke-linecap="round" stroke-linejoin="round" stroke-width="1"/>
              <path id="Trazado_915298" data-name="Trazado 915298" d="M295.641,201.807q24.249-.4,48.774,1.134" transform="translate(-90.881 -62.011)" fill="none" stroke="#17014e" stroke-linecap="round" stroke-linejoin="round" stroke-width="1"/>
              <path id="Trazado_915299" data-name="Trazado 915299" d="M335.41,312.486a954.662,954.662,0,0,1-126.262.306,5.917,5.917,0,0,1-5.48-5.19,373.484,373.484,0,0,1-.808-81.743,5.914,5.914,0,0,1,5.2-5.323A634.03,634.03,0,0,1,334.892,218.9a5.894,5.894,0,0,1,5.36,5.449,600.922,600.922,0,0,1,.631,82.659,5.891,5.891,0,0,1-5.473,5.474" transform="translate(-61.79 -66.55)" fill="#ffcf4e"/>
              <path id="Trazado_915300" data-name="Trazado 915300" d="M334.892,218.9a633.987,633.987,0,0,0-126.837,1.632,5.913,5.913,0,0,0-5.2,5.323,373.489,373.489,0,0,0,.808,81.744,5.933,5.933,0,0,0,2.524,4.161,525.951,525.951,0,0,1-.971-85.313,4.506,4.506,0,0,1,4.113-4.164,824.519,824.519,0,0,1,130.011-.669,5.881,5.881,0,0,0-4.452-2.714" transform="translate(-61.79 -66.55)" fill="#ffaa08"/>
              <path id="Trazado_915301" data-name="Trazado 915301" d="M390.123,210.94a1.415,1.415,0,0,0-1.908.411,1.442,1.442,0,0,0,.439,1.911,1.469,1.469,0,0,0,1.925-.409,1.385,1.385,0,0,0-.456-1.914" transform="translate(-119.279 -64.779)" fill="#e3deff"/>
              <path id="Trazado_915302" data-name="Trazado 915302" d="M379.631,210.15a1.415,1.415,0,0,0-1.908.411,1.441,1.441,0,0,0,.439,1.91,1.468,1.468,0,0,0,1.925-.408,1.385,1.385,0,0,0-.456-1.914" transform="translate(-116.054 -64.536)" fill="#9f9cff"/>
              <path id="Trazado_915303" data-name="Trazado 915303" d="M369.141,209.476a1.415,1.415,0,0,0-1.908.411,1.441,1.441,0,0,0,.439,1.91,1.468,1.468,0,0,0,1.925-.408,1.385,1.385,0,0,0-.456-1.914" transform="translate(-112.829 -64.329)" fill="#ffcf4e"/>
              <path id="Trazado_915304" data-name="Trazado 915304" d="M211.122,365.067a46.571,46.571,0,0,0-.109,4.694,1.193,1.193,0,0,0,1.1,1.15c1.159.091,3.09.231,4.81.3a1.19,1.19,0,0,0,1.237-1.1c.09-1.142.222-2.962.288-4.579a1.2,1.2,0,0,0-1.083-1.243c-1.274-.119-3.392-.3-5.033-.334a1.191,1.191,0,0,0-1.212,1.106" transform="translate(-64.86 -111.883)" fill="#9f9cff"/>
              <path id="Trazado_915305" data-name="Trazado 915305" d="M211.122,365.067a46.571,46.571,0,0,0-.109,4.694,1.193,1.193,0,0,0,1.1,1.15c1.159.091,3.09.231,4.81.3a1.19,1.19,0,0,0,1.237-1.1c.09-1.142.222-2.962.288-4.579a1.2,1.2,0,0,0-1.083-1.243c-1.274-.119-3.392-.3-5.033-.334A1.191,1.191,0,0,0,211.122,365.067Z" transform="translate(-64.86 -111.883)" fill="none" stroke="#5247bf" stroke-linecap="round" stroke-linejoin="round" stroke-width="1"/>
              <path id="Trazado_915306" data-name="Trazado 915306" d="M226.29,365.99a46.571,46.571,0,0,0-.109,4.694,1.193,1.193,0,0,0,1.1,1.15c1.159.091,3.09.231,4.809.3a1.19,1.19,0,0,0,1.238-1.1c.09-1.143.222-2.962.288-4.579a1.2,1.2,0,0,0-1.083-1.243c-1.274-.119-3.392-.3-5.033-.334a1.191,1.191,0,0,0-1.212,1.106" transform="translate(-69.523 -112.167)" fill="#9f9cff"/>
              <path id="Trazado_915307" data-name="Trazado 915307" d="M226.29,365.99a46.571,46.571,0,0,0-.109,4.694,1.193,1.193,0,0,0,1.1,1.15c1.159.091,3.09.231,4.809.3a1.19,1.19,0,0,0,1.238-1.1c.09-1.143.222-2.962.288-4.579a1.2,1.2,0,0,0-1.083-1.243c-1.274-.119-3.392-.3-5.033-.334A1.191,1.191,0,0,0,226.29,365.99Z" transform="translate(-69.523 -112.167)" fill="none" stroke="#5247bf" stroke-linecap="round" stroke-linejoin="round" stroke-width="1"/>
              <path id="Trazado_915308" data-name="Trazado 915308" d="M388.456,364.709a46.689,46.689,0,0,0,.479,4.67,1.194,1.194,0,0,0,1.236,1c1.161-.055,3.1-.159,4.81-.3a1.19,1.19,0,0,0,1.091-1.244c-.054-1.145-.151-2.966-.287-4.579a1.2,1.2,0,0,0-1.229-1.1c-1.279.041-3.4.13-5.035.3a1.19,1.19,0,0,0-1.065,1.249" transform="translate(-119.412 -111.637)" fill="#9f9cff"/>
              <path id="Trazado_915309" data-name="Trazado 915309" d="M388.456,364.709a46.689,46.689,0,0,0,.479,4.67,1.194,1.194,0,0,0,1.236,1c1.161-.055,3.1-.159,4.81-.3a1.19,1.19,0,0,0,1.091-1.244c-.054-1.145-.151-2.966-.287-4.579a1.2,1.2,0,0,0-1.229-1.1c-1.279.041-3.4.13-5.035.3A1.19,1.19,0,0,0,388.456,364.709Z" transform="translate(-119.412 -111.637)" fill="none" stroke="#5247bf" stroke-linecap="round" stroke-linejoin="round" stroke-width="1"/>
              <rect id="Rectángulo_403206" data-name="Rectángulo 403206" width="60.454" height="60.454" transform="translate(179.385 224.39) rotate(-89.598)" fill="none" stroke="#17014e" stroke-linecap="round" stroke-linejoin="round" stroke-width="1"/>
              <rect id="Rectángulo_403207" data-name="Rectángulo 403207" width="3.521" height="3.521" transform="matrix(0.007, -1, 1, 0.007, 238.488, 166.11)" fill="none" stroke="#17014e" stroke-linecap="round" stroke-linejoin="round" stroke-width="1"/>
              <rect id="Rectángulo_403208" data-name="Rectángulo 403208" width="3.521" height="3.521" transform="matrix(0.007, -1, 1, 0.007, 208.262, 165.898)" fill="none" stroke="#17014e" stroke-linecap="round" stroke-linejoin="round" stroke-width="1"/>
              <rect id="Rectángulo_403209" data-name="Rectángulo 403209" width="3.521" height="3.521" transform="matrix(0.007, -1, 1, 0.007, 178.036, 165.686)" fill="none" stroke="#17014e" stroke-linecap="round" stroke-linejoin="round" stroke-width="1"/>
              <rect id="Rectángulo_403210" data-name="Rectángulo 403210" width="3.521" height="3.521" transform="matrix(0.007, -1, 1, 0.007, 238.276, 196.336)" fill="none" stroke="#17014e" stroke-linecap="round" stroke-linejoin="round" stroke-width="1"/>
              <rect id="Rectángulo_403211" data-name="Rectángulo 403211" width="3.521" height="3.521" transform="matrix(0.007, -1, 1, 0.007, 177.824, 195.912)" fill="none" stroke="#17014e" stroke-linecap="round" stroke-linejoin="round" stroke-width="1"/>
              <rect id="Rectángulo_403212" data-name="Rectángulo 403212" width="3.521" height="3.521" transform="matrix(0.007, -1, 1, 0.007, 238.064, 226.562)" fill="none" stroke="#17014e" stroke-linecap="round" stroke-linejoin="round" stroke-width="1"/>
              <rect id="Rectángulo_403213" data-name="Rectángulo 403213" width="3.521" height="3.521" transform="matrix(0.007, -1, 1, 0.007, 207.838, 226.35)" fill="none" stroke="#17014e" stroke-linecap="round" stroke-linejoin="round" stroke-width="1"/>
              <rect id="Rectángulo_403214" data-name="Rectángulo 403214" width="3.521" height="3.521" transform="matrix(0.007, -1, 1, 0.007, 177.612, 226.138)" fill="none" stroke="#17014e" stroke-linecap="round" stroke-linejoin="round" stroke-width="1"/>
              <path id="Trazado_915310" data-name="Trazado 915310" d="M300.284,284.289H285.832l-2.555,6.63H270.236l16.626-38.037H299.47L316.1,290.92H302.839Zm-3.531-9.236-3.694-9.563-3.7,9.563Z" transform="translate(-83.072 -77.737)" fill="#8237cc"/>
              <path id="Trazado_915311" data-name="Trazado 915311" d="M274.139,290.934l-3.9,8.932h13.041l2.555-6.63h14.452l2.555,6.63H316.1l-7.817-17.881a78.715,78.715,0,0,1-34.14,8.95" transform="translate(-83.071 -86.683)" fill="#712bb5"/>
              <path id="Trazado_915312" data-name="Trazado 915312" d="M294.242,252.883h12.607l7.745,17.719m-10.462,4.452-3.694-9.563" transform="translate(-90.451 -77.737)" fill="none" stroke="#712bb5" stroke-linecap="round" stroke-linejoin="round" stroke-width="1"/>
              <g id="Grupo_1101382" data-name="Grupo 1101382" transform="translate(251.235 201.793)" opacity="0.09" style="mix-blend-mode: multiply;isolation: isolate">
                <g id="Grupo_1101381" data-name="Grupo 1101381">
                  <g id="Grupo_1101380" data-name="Grupo 1101380" clip-path="url(#clip-path-24)">
                    <path id="Trazado_915313" data-name="Trazado 915313" d="M380.132,311.494a87.26,87.26,0,0,0,.064-16.412,3.619,3.619,0,0,0-3.14-3.277,58.1,58.1,0,0,0-10.257-.365,3.6,3.6,0,0,0-3.374,3.141,92.083,92.083,0,0,0-.523,16.759,3.593,3.593,0,0,0,3.328,3.4,80.794,80.794,0,0,0,10.556.015,3.606,3.606,0,0,0,3.345-3.257" transform="translate(-362.744 -291.358)" fill="#17014e"/>
                  </g>
                </g>
              </g>
              <path id="Trazado_915314" data-name="Trazado 915314" d="M377.792,309.42a87.262,87.262,0,0,0,.064-16.412,3.619,3.619,0,0,0-3.14-3.277,58.107,58.107,0,0,0-10.257-.365,3.6,3.6,0,0,0-3.374,3.141,92.149,92.149,0,0,0-.523,16.76,3.593,3.593,0,0,0,3.328,3.4,80.794,80.794,0,0,0,10.556.015,3.606,3.606,0,0,0,3.345-3.257" transform="translate(-110.79 -88.927)" fill="#8237cc"/>
              <path id="Trazado_915315" data-name="Trazado 915315" d="M382.17,325.321a21,21,0,0,1-4.428.123,2.016,2.016,0,0,1-1.832-1.671,23.2,23.2,0,0,1-.3-4.581,2.019,2.019,0,0,1,1.875-1.944,18.76,18.76,0,0,1,4.951.25,2,2,0,0,1,1.618,1.8,18.165,18.165,0,0,1-.159,4.375,2.012,2.012,0,0,1-1.727,1.648" transform="translate(-115.461 -97.504)" fill="#e3deff"/>
              <path id="Trazado_915316" data-name="Trazado 915316" d="M382.17,325.321a21,21,0,0,1-4.428.123,2.016,2.016,0,0,1-1.832-1.671,23.2,23.2,0,0,1-.3-4.581,2.019,2.019,0,0,1,1.875-1.944,18.76,18.76,0,0,1,4.951.25,2,2,0,0,1,1.618,1.8,18.165,18.165,0,0,1-.159,4.375A2.012,2.012,0,0,1,382.17,325.321Z" transform="translate(-115.461 -97.504)" fill="none" stroke="#17014e" stroke-linecap="round" stroke-linejoin="round" stroke-width="1"/>
              <g id="Grupo_1101385" data-name="Grupo 1101385" transform="translate(223.681 210.55)" opacity="0.09" style="mix-blend-mode: multiply;isolation: isolate">
                <g id="Grupo_1101384" data-name="Grupo 1101384">
                  <g id="Grupo_1101383" data-name="Grupo 1101383" clip-path="url(#clip-path-10)">
                    <path id="Trazado_915317" data-name="Trazado 915317" d="M335.088,318.45l-3.759-6.235c1.256-.834,2.5-1.691,3.7-2.6L322.96,304l.179,12.974c1.32-.66,2.614-1.371,3.895-2.105q1.7,3.248,3.686,6.328Z" transform="translate(-322.96 -304.001)" fill="#17014e"/>
                  </g>
                </g>
              </g>
              <path id="Trazado_915318" data-name="Trazado 915318" d="M337.028,315.543l-4.494-5.727c1.144-.981,2.271-1.984,3.356-3.03l-12.669-4.1,1.768,12.854c1.229-.817,2.426-1.681,3.607-2.567q2.081,3.015,4.433,5.828Z" transform="translate(-99.359 -93.048)" fill="#fff"/>
              <path id="Trazado_915319" data-name="Trazado 915319" d="M337.028,315.543l-4.494-5.727c1.144-.981,2.271-1.984,3.356-3.03l-12.669-4.1,1.768,12.854c1.229-.817,2.426-1.681,3.607-2.567q2.081,3.015,4.433,5.828Z" transform="translate(-99.359 -93.048)" fill="none" stroke="#fff" stroke-linecap="round" stroke-linejoin="round" stroke-width="1"/>
              <g id="Grupo_1101388" data-name="Grupo 1101388" transform="translate(247.01 166.831)" opacity="0.09" style="mix-blend-mode: multiply;isolation: isolate">
                <g id="Grupo_1101387" data-name="Grupo 1101387">
                  <g id="Grupo_1101386" data-name="Grupo 1101386" clip-path="url(#clip-path-26)">
                    <path id="Trazado_915320" data-name="Trazado 915320" d="M382.64,252.933a13.055,13.055,0,1,0-8.013,13.039,13.416,13.416,0,0,0,8.013-13.039m-10.268,4.008a4.276,4.276,0,1,1,.346-6.312,4.34,4.34,0,0,1-.346,6.312" transform="translate(-356.643 -240.878)" fill="#17014e"/>
                  </g>
                </g>
              </g>
              <path id="Trazado_915321" data-name="Trazado 915321" d="M381.564,251a13.055,13.055,0,1,0-8.013,13.039A13.416,13.416,0,0,0,381.564,251M371.3,255.011a4.276,4.276,0,1,1,.346-6.312,4.34,4.34,0,0,1-.346,6.312" transform="translate(-109.303 -73.454)" fill="#8237cc"/>
              <path id="Trazado_915322" data-name="Trazado 915322" d="M379.328,258.726a4.307,4.307,0,0,1-1.427,2.364,3.849,3.849,0,0,1-.848.508l4.2,7.993a13.588,13.588,0,0,0,6.754-9.435Z" transform="translate(-115.908 -79.533)" fill="#ee3a59"/>
              <path id="Trazado_915323" data-name="Trazado 915323" d="M365.454,260.6a4.024,4.024,0,0,1-.867-1.813l-8.73,1.545a12.916,12.916,0,0,0,2.89,6.277,12.393,12.393,0,0,0,2.948,2.476l4.838-7.642a3.917,3.917,0,0,1-1.078-.844" transform="translate(-109.392 -79.551)" fill="#ef5e9c"/>
              <path id="Trazado_915324" data-name="Trazado 915324" d="M365.383,250.7l-6.239-5.947a12.3,12.3,0,0,0-1.789,2.293,13.221,13.221,0,0,0-1.585,8.973l8.73-1.545a4.468,4.468,0,0,1,.883-3.774" transform="translate(-109.304 -75.237)" fill="#e3deff"/>
              <path id="Trazado_915325" data-name="Trazado 915325" d="M366.968,248.914a3.6,3.6,0,0,1,.31-.356,4.3,4.3,0,0,1,3.26-1.046l.707-8.524a13.506,13.506,0,0,0-10.516,3.979Z" transform="translate(-110.889 -73.455)" fill="#34a5d1"/>
              <path id="Trazado_915326" data-name="Trazado 915326" d="M377.627,239.328a12.371,12.371,0,0,0-2.028-.323l-.707,8.524a4,4,0,0,1,3.23,1.867l6.906-4.962a13.212,13.212,0,0,0-7.4-5.105" transform="translate(-115.243 -73.471)" fill="#7f7aff"/>
              <path id="Trazado_915327" data-name="Trazado 915327" d="M388.775,256.5a12.273,12.273,0,0,0,.163-3.073,12.941,12.941,0,0,0-2.477-6.587l-6.906,4.962a4.229,4.229,0,0,1,.542,3.268Z" transform="translate(-116.677 -75.881)" fill="#17014e"/>
              <path id="Trazado_915328" data-name="Trazado 915328" d="M381.715,255.377a12.087,12.087,0,0,0-.38-2.2,12.538,12.538,0,0,1-1.937,8.456,13.453,13.453,0,0,1-13.677,5.416,14.886,14.886,0,0,1-9.664-7.748,12.8,12.8,0,0,0,2.752,5.581,13.055,13.055,0,0,0,22.906-9.507" transform="translate(-109.453 -77.828)" fill="#17014e"/>
              <path id="Trazado_915329" data-name="Trazado 915329" d="M371.686,239.311a13.341,13.341,0,0,0-14.334,5.949,12.938,12.938,0,0,0-1.785,6.7m15.729,3.046a4.276,4.276,0,1,1,.346-6.312A4.34,4.34,0,0,1,371.3,255.011Z" transform="translate(-109.303 -73.454)" fill="none" stroke="#17014e" stroke-linecap="round" stroke-linejoin="round" stroke-width="1"/>
              <path id="Trazado_915330" data-name="Trazado 915330" d="M279.142,344.472h-57.3a2.636,2.636,0,1,1,0-5.272h57.3a2.636,2.636,0,1,1,0,5.272" transform="translate(-67.386 -104.271)" fill="#ef5e9c"/>
              <path id="Trazado_915331" data-name="Trazado 915331" d="M365.788,344.472H323.53a2.636,2.636,0,1,1,0-5.272h42.258a2.636,2.636,0,1,1,0,5.272" transform="translate(-98.644 -104.271)" fill="#ef5e9c"/>
              <path id="Trazado_915332" data-name="Trazado 915332" d="M219.019,260.49H232.64a4.669,4.669,0,0,0,4.669-4.669V241.186a4.669,4.669,0,0,0-4.669-4.669H219.019a4.669,4.669,0,0,0-4.669,4.669v14.635a4.669,4.669,0,0,0,4.669,4.669" transform="translate(-65.892 -72.706)" fill="#fff"/>
              <line id="Línea_621" data-name="Línea 621" x2="14.22" transform="translate(153.209 169.513)" fill="none" stroke="#17014e" stroke-linecap="round" stroke-linejoin="round" stroke-width="1"/>
              <line id="Línea_622" data-name="Línea 622" x2="14.22" transform="translate(153.209 173.967)" fill="none" stroke="#17014e" stroke-linecap="round" stroke-linejoin="round" stroke-width="1"/>
              <line id="Línea_623" data-name="Línea 623" x2="7.11" transform="translate(153.209 178.42)" fill="none" stroke="#17014e" stroke-linecap="round" stroke-linejoin="round" stroke-width="1"/>
              <path id="Trazado_915333" data-name="Trazado 915333" d="M219.019,312.268H232.64a4.669,4.669,0,0,0,4.669-4.669V284.253a4.669,4.669,0,0,0-4.669-4.669H219.019a4.669,4.669,0,0,0-4.669,4.669V307.6a4.669,4.669,0,0,0,4.669,4.669" transform="translate(-65.892 -85.945)" fill="#fff"/>
              <path id="Trazado_915334" data-name="Trazado 915334" d="M220.429,287.913h-1.857a.486.486,0,0,0-.486.486v8.72a.486.486,0,0,0,.486.486h1.857a.486.486,0,0,0,.486-.486V288.4a.486.486,0,0,0-.486-.486" transform="translate(-67.04 -88.506)" fill="#ee3a59"/>
              <path id="Trazado_915335" data-name="Trazado 915335" d="M227.627,296.931H225.77a.486.486,0,0,0-.486.486v2.475a.486.486,0,0,0,.486.486h1.857a.486.486,0,0,0,.486-.486v-2.475a.486.486,0,0,0-.486-.486" transform="translate(-69.253 -91.278)" fill="#ee3a59"/>
              <path id="Trazado_915336" data-name="Trazado 915336" d="M234.824,291.743h-1.858a.486.486,0,0,0-.486.486V298.3a.486.486,0,0,0,.486.486h1.858a.486.486,0,0,0,.486-.486v-6.068a.486.486,0,0,0-.486-.486" transform="translate(-71.466 -89.683)" fill="#ee3a59"/>
              <path id="Trazado_915337" data-name="Trazado 915337" d="M242.021,288.593h-1.857a.486.486,0,0,0-.486.486v8.25a.486.486,0,0,0,.486.486h1.857a.486.486,0,0,0,.486-.486v-8.25a.486.486,0,0,0-.486-.486" transform="translate(-73.678 -88.715)" fill="#ee3a59"/>
              <line id="Línea_624" data-name="Línea 624" x2="17.782" transform="translate(151.046 211.263)" fill="none" stroke="#17014e" stroke-linecap="round" stroke-linejoin="round" stroke-width="1"/>
              <path id="Trazado_915338" data-name="Trazado 915338" d="M224.1,317.84h-4.678a1.338,1.338,0,0,1-1.338-1.338v-4.417a1.338,1.338,0,0,1,1.338-1.338H224.1a1.338,1.338,0,0,1,1.338,1.338V316.5a1.338,1.338,0,0,1-1.338,1.338" transform="translate(-67.041 -95.525)" fill="#d6ceff"/>
              <path id="Trazado_915339" data-name="Trazado 915339" d="M238.956,317.84h-5.137a1.338,1.338,0,0,1-1.338-1.338v-4.417a1.338,1.338,0,0,1,1.338-1.338h5.137a1.338,1.338,0,0,1,1.338,1.338V316.5a1.338,1.338,0,0,1-1.338,1.338" transform="translate(-71.466 -95.525)" fill="#d6ceff"/>
              <g id="Grupo_1101391" data-name="Grupo 1101391" transform="translate(59.081 134.605)" opacity="0.09" style="mix-blend-mode: multiply;isolation: isolate">
                <g id="Grupo_1101390" data-name="Grupo 1101390">
                  <g id="Grupo_1101389" data-name="Grupo 1101389" clip-path="url(#clip-path-27)">
                    <path id="Trazado_915340" data-name="Trazado 915340" d="M91.578,197.628a10.2,10.2,0,0,1,.695,3.585,3.459,3.459,0,0,1-1.77,3.012,3.219,3.219,0,0,1-3.445-.732,6.005,6.005,0,0,1-1.605-3.309,6.323,6.323,0,0,1,.264-3.669,3.487,3.487,0,0,1,2.816-2.161c1.242-.08,2.3.949,3.046,3.275" transform="translate(-85.303 -194.349)" fill="#17014e"/>
                  </g>
                </g>
              </g>
              <path id="Trazado_915341" data-name="Trazado 915341" d="M89.686,196.359a10.174,10.174,0,0,1,.015,3.651,3.459,3.459,0,0,1-2.3,2.63,3.218,3.218,0,0,1-3.248-1.361,6,6,0,0,1-.961-3.551,6.319,6.319,0,0,1,.943-3.556,3.485,3.485,0,0,1,3.169-1.6c1.235.152,2.079,1.36,2.383,3.784" transform="translate(-25.574 -59.192)" fill="#8237cc"/>
              <g id="Grupo_1101394" data-name="Grupo 1101394" transform="translate(58.716 134.645)" opacity="0.6" style="mix-blend-mode: soft-light;isolation: isolate">
                <g id="Grupo_1101393" data-name="Grupo 1101393">
                  <g id="Grupo_1101392" data-name="Grupo 1101392" clip-path="url(#clip-path-28)">
                    <path id="Trazado_915342" data-name="Trazado 915342" d="M86.612,194.505c-1.35-.588-2.4,1.614-1.493,2.275,1.469,1.066,2.962-1.635,1.493-2.275" transform="translate(-84.777 -194.406)" fill="#fff"/>
                  </g>
                </g>
              </g>
              <g id="Grupo_1101397" data-name="Grupo 1101397" transform="translate(120.256 149.969)" opacity="0.09" style="mix-blend-mode: multiply;isolation: isolate">
                <g id="Grupo_1101396" data-name="Grupo 1101396">
                  <g id="Grupo_1101395" data-name="Grupo 1101395" clip-path="url(#clip-path-29)">
                    <path id="Trazado_915343" data-name="Trazado 915343" d="M178.335,219.149a9.07,9.07,0,0,1-.548,3.453,2.346,2.346,0,0,1-2.505,1.589,2.373,2.373,0,0,1-1.475-1.662,5.476,5.476,0,0,1-.077-2.444,4.516,4.516,0,0,1,1.922-3.367c1.108-.579,2.745.179,2.682,2.432" transform="translate(-173.631 -216.531)" fill="#17014e"/>
                  </g>
                </g>
              </g>
              <path id="Trazado_915344" data-name="Trazado 915344" d="M177.76,217.323a8.611,8.611,0,0,1-1.27,3.193,2.2,2.2,0,0,1-2.769.835,2.59,2.59,0,0,1-1.074-2.027,5.4,5.4,0,0,1,.449-2.391,4.122,4.122,0,0,1,2.583-2.723c1.2-.25,2.624.946,2.08,3.112" transform="translate(-53.069 -65.839)" fill="#8237cc"/>
              <g id="Grupo_1101400" data-name="Grupo 1101400" transform="translate(121.141 149.107)" opacity="0.6" style="mix-blend-mode: soft-light;isolation: isolate">
                <g id="Grupo_1101399" data-name="Grupo 1101399">
                  <g id="Grupo_1101398" data-name="Grupo 1101398" clip-path="url(#clip-path-30)">
                    <path id="Trazado_915345" data-name="Trazado 915345" d="M176.629,215.385c-.7-.522-2.493,1.162-1.347,2.054s2.376-1.29,1.347-2.054" transform="translate(-174.909 -215.287)" fill="#fff"/>
                  </g>
                </g>
              </g>
              <g id="Grupo_1101403" data-name="Grupo 1101403" transform="translate(84.353 141.157)" opacity="0.09" style="mix-blend-mode: multiply;isolation: isolate">
                <g id="Grupo_1101402" data-name="Grupo 1101402">
                  <g id="Grupo_1101401" data-name="Grupo 1101401" clip-path="url(#clip-path-29)">
                    <path id="Trazado_915346" data-name="Trazado 915346" d="M126.5,206.426a9.068,9.068,0,0,1-.548,3.453,2.346,2.346,0,0,1-2.505,1.589,2.373,2.373,0,0,1-1.475-1.662,5.476,5.476,0,0,1-.077-2.444,4.516,4.516,0,0,1,1.922-3.367c1.108-.579,2.745.179,2.682,2.432" transform="translate(-121.793 -203.808)" fill="#17014e"/>
                  </g>
                </g>
              </g>
              <path id="Trazado_915347" data-name="Trazado 915347" d="M125.922,204.6a8.611,8.611,0,0,1-1.27,3.193,2.2,2.2,0,0,1-2.769.835,2.59,2.59,0,0,1-1.074-2.027,5.405,5.405,0,0,1,.449-2.391,4.122,4.122,0,0,1,2.583-2.723c1.2-.249,2.624.946,2.08,3.112" transform="translate(-37.134 -61.929)" fill="#8237cc"/>
              <g id="Grupo_1101406" data-name="Grupo 1101406" transform="translate(85.239 140.295)" opacity="0.6" style="mix-blend-mode: soft-light;isolation: isolate">
                <g id="Grupo_1101405" data-name="Grupo 1101405">
                  <g id="Grupo_1101404" data-name="Grupo 1101404" clip-path="url(#clip-path-30)">
                    <path id="Trazado_915348" data-name="Trazado 915348" d="M124.792,202.662c-.7-.522-2.493,1.162-1.347,2.054s2.376-1.29,1.347-2.054" transform="translate(-123.071 -202.564)" fill="#fff"/>
                  </g>
                </g>
              </g>
            </g>
          </g>
        </g>
      </g>
    </g>
  </g>
</svg>
