<svg xmlns="http://www.w3.org/2000/svg" width="85" height="85" viewBox="0 0 85 85">
  <g id="Grupo_1101629" data-name="Grupo 1101629" transform="translate(-305.051 -381)">
    <circle id="Elipse_11516" data-name="Elipse 11516" cx="42.5" cy="42.5" r="42.5" transform="translate(305.051 381)" fill="#ff9a09"/>
    <g id="formato_1_" data-name="formato (1)" transform="translate(325.551 398)">
      <path id="Trazado_915977" data-name="Trazado 915977" d="M8,9.715H27.106V28.821H8Zm0,0" transform="translate(-6.745 -8.737)" fill="#a3e2ee"/>
      <path id="Trazado_915978" data-name="Trazado 915978" d="M173.734,9.715h2.417V28.821h-2.417Zm0,0" transform="translate(-155.79 -8.737)" fill="#65cee3"/>
      <path id="Trazado_915979" data-name="Trazado 915979" d="M53.734,44.828a4.816,4.816,0,1,1-4.816-4.816A4.817,4.817,0,0,1,53.734,44.828Zm0,0" transform="translate(-39.211 -35.983)" fill="#f9cd45"/>
      <path id="Trazado_915980" data-name="Trazado 915980" d="M81.592,40.012a4.823,4.823,0,0,0-1.158.141,4.817,4.817,0,0,1,0,9.351,4.816,4.816,0,1,0,1.158-9.492Zm0,0" transform="translate(-71.884 -35.983)" fill="#f8b53c"/>
      <path id="Trazado_915981" data-name="Trazado 915981" d="M50.292,93.3l-6.171,10.689H56.464L50.292,93.3l-6.171,10.689H56.464Zm0,0" transform="translate(-39.229 -83.902)" fill="#d47a3d"/>
      <path id="Trazado_915982" data-name="Trazado 915982" d="M94.615,93.3,93.406,95.39l4.963,8.6h2.417Zm0,0" transform="translate(-83.551 -83.902)" fill="#9f5c2e"/>
      <path id="Trazado_915983" data-name="Trazado 915983" d="M8,243.215H27.106v26.311H8Zm0,0" transform="translate(-6.745 -218.724)" fill="#fff8f7"/>
      <path id="Trazado_915984" data-name="Trazado 915984" d="M174.734,243.215h2.316v26.311h-2.316Zm0,0" transform="translate(-156.689 -218.724)" fill="#f4f4f5"/>
      <path id="Trazado_915985" data-name="Trazado 915985" d="M235,7.5h19.106V33.811H235Zm0,0" transform="translate(-210.886 -6.745)" fill="#fff8f7"/>
      <path id="Trazado_915986" data-name="Trazado 915986" d="M401.734,7.5h2.316V33.811h-2.316Zm0,0" transform="translate(-360.831 -6.745)" fill="#f4f4f5"/>
      <path id="Trazado_915987" data-name="Trazado 915987" d="M235,314.766h19.106v19.106H235Zm0,0" transform="translate(-210.886 -283.069)" fill="#fff8f7"/>
      <path id="Trazado_915988" data-name="Trazado 915988" d="M401.734,314.766h2.316v19.106h-2.316Zm0,0" transform="translate(-360.831 -283.069)" fill="#f4f4f5"/>
      <path id="Trazado_915989" data-name="Trazado 915989" d="M267.32,356.555v3.009h0v1.892h2.148v-1.892h2.646V365.1h-1.25v2.148h5.509V365.1h-1.25v-5.533h2.646v1.892h2.148v-4.9Zm0,0" transform="translate(-239.952 -320.65)" fill="#9b43a9"/>
      <path id="Trazado_915990" data-name="Trazado 915990" d="M369.414,356.555v3.009h.168v1.892h2.148v-4.9Zm0,0" transform="translate(-331.765 -320.65)" fill="#893aa8"/>
      <g id="Grupo_1101628" data-name="Grupo 1101628" transform="translate(0.5)">
        <path id="Trazado_915991" data-name="Trazado 915991" d="M1.255,22.831H20.361a.755.755,0,0,0,.755-.755V2.97a.755.755,0,0,0-.755-.755H1.255A.755.755,0,0,0,.5,2.97V22.076A.755.755,0,0,0,1.255,22.831ZM6.2,21.321,11.064,12.9l4.863,8.424Zm2.107-6.67a4.063,4.063,0,1,1,4.688-1.43l-1.277-2.211a.755.755,0,0,0-1.308,0ZM2.01,3.725h17.6v17.6H17.672L13.8,14.616a5.57,5.57,0,1,0-6.257,1.358L4.456,21.321H2.01Zm0,0" transform="translate(-0.5 -1.992)" fill="#18191b"/>
        <path id="Trazado_915992" data-name="Trazado 915992" d="M1.255,258.812a.755.755,0,0,0-.755.755v3.214a.755.755,0,0,0,.755.755H20.361a.755.755,0,0,0,.755-.755V236.47a.755.755,0,0,0-.755-.755H1.255a.755.755,0,0,0-.755.755v20.044a.755.755,0,0,0,1.51,0V237.225h17.6v24.8H2.01v-2.459A.755.755,0,0,0,1.255,258.812Zm0,0" transform="translate(-0.5 -211.979)" fill="#18191b"/>
        <path id="Trazado_915993" data-name="Trazado 915993" d="M33.337,276.87h4.632a.755.755,0,0,0,0-1.51H33.337a.755.755,0,0,0,0,1.51Zm0,0" transform="translate(-29.351 -247.631)" fill="#18191b"/>
        <path id="Trazado_915994" data-name="Trazado 915994" d="M117.54,457.359h-4.632a.755.755,0,0,0,0,1.51h4.632a.755.755,0,0,0,0-1.51Zm0,0" transform="translate(-100.909 -411.304)" fill="#18191b"/>
        <path id="Trazado_915995" data-name="Trazado 915995" d="M33.337,309.87H45.982a.755.755,0,0,0,0-1.51H33.337a.755.755,0,0,0,0,1.51Zm0,0" transform="translate(-29.351 -277.308)" fill="#18191b"/>
        <path id="Trazado_915996" data-name="Trazado 915996" d="M33.337,347.37H45.982a.755.755,0,0,0,0-1.51H33.337a.755.755,0,1,0,0,1.51Zm0,0" transform="translate(-29.351 -311.032)" fill="#18191b"/>
        <path id="Trazado_915997" data-name="Trazado 915997" d="M33.337,384.87H45.982a.755.755,0,0,0,0-1.51H33.337a.755.755,0,0,0,0,1.51Zm0,0" transform="translate(-29.351 -344.756)" fill="#18191b"/>
        <path id="Trazado_915998" data-name="Trazado 915998" d="M33.337,422.37H45.982a.755.755,0,0,0,0-1.51H33.337a.755.755,0,1,0,0,1.51Zm0,0" transform="translate(-29.351 -378.48)" fill="#18191b"/>
        <path id="Trazado_915999" data-name="Trazado 915999" d="M236.413,27.821h10.948a.755.755,0,0,0,.755-.755V.755A.755.755,0,0,0,247.361,0H228.255a.755.755,0,0,0-.755.755V27.066a.755.755,0,0,0,.755.755h4.953a.755.755,0,0,0,0-1.51h-4.2V1.51h17.6v24.8H236.413a.755.755,0,1,0,0,1.51Zm0,0" transform="translate(-204.642)" fill="#18191b"/>
        <path id="Trazado_916000" data-name="Trazado 916000" d="M260.337,41.151h4.632a.755.755,0,0,0,0-1.51h-4.632a.755.755,0,1,0,0,1.51Zm0,0" transform="translate(-233.493 -35.649)" fill="#18191b"/>
        <path id="Trazado_916001" data-name="Trazado 916001" d="M344.54,221.641h-4.632a.755.755,0,1,0,0,1.51h4.632a.755.755,0,0,0,0-1.51Zm0,0" transform="translate(-305.051 -199.322)" fill="#18191b"/>
        <path id="Trazado_916002" data-name="Trazado 916002" d="M260.337,74.151h12.645a.755.755,0,0,0,0-1.51H260.337a.755.755,0,1,0,0,1.51Zm0,0" transform="translate(-233.493 -65.326)" fill="#18191b"/>
        <path id="Trazado_916003" data-name="Trazado 916003" d="M260.337,111.651h12.645a.755.755,0,0,0,0-1.51H260.337a.755.755,0,1,0,0,1.51Zm0,0" transform="translate(-233.493 -99.05)" fill="#18191b"/>
        <path id="Trazado_916004" data-name="Trazado 916004" d="M260.337,149.151h12.645a.755.755,0,0,0,0-1.51H260.337a.755.755,0,1,0,0,1.51Zm0,0" transform="translate(-233.493 -132.774)" fill="#18191b"/>
        <path id="Trazado_916005" data-name="Trazado 916005" d="M260.337,186.651h12.645a.755.755,0,0,0,0-1.51H260.337a.755.755,0,1,0,0,1.51Zm0,0" transform="translate(-233.493 -166.497)" fill="#18191b"/>
        <path id="Trazado_916006" data-name="Trazado 916006" d="M227.5,327.127a.755.755,0,0,0,.755.755h19.106a.755.755,0,0,0,.755-.755V308.021a.755.755,0,0,0-.755-.755H228.255a.755.755,0,0,0-.755.755Zm1.51-18.351h17.6v17.6h-17.6Zm0,0" transform="translate(-204.642 -276.325)" fill="#18191b"/>
        <path id="Trazado_916007" data-name="Trazado 916007" d="M273.172,349.055h-12.6a.755.755,0,0,0-.755.755v3.009c0,.007,0,.014,0,.021v1.871a.755.755,0,0,0,.755.755h2.148a.755.755,0,0,0,.755-.755v-1.137h1.135V357.6h-.495a.755.755,0,0,0-.755.755V360.5a.755.755,0,0,0,.755.755h5.509a.755.755,0,0,0,.755-.755v-2.148a.755.755,0,0,0-.755-.755h-.495v-4.023h1.135v1.137a.755.755,0,0,0,.755.755h2.148a.755.755,0,0,0,.755-.755v-4.9A.755.755,0,0,0,273.172,349.055Zm-.755,4.9h-.638v-1.136a.755.755,0,0,0-.755-.755h-2.646a.755.755,0,0,0-.755.755v5.533a.755.755,0,0,0,.755.755h.495v.637h-4v-.637h.495a.755.755,0,0,0,.755-.755v-5.533a.755.755,0,0,0-.755-.755h-2.646a.755.755,0,0,0-.755.755v1.136h-.637v-1.136c0-.007,0-.014,0-.021v-2.233h11.086Zm0,0" transform="translate(-233.707 -313.906)" fill="#18191b"/>
      </g>
    </g>
  </g>
</svg>
