<svg xmlns="http://www.w3.org/2000/svg" width="190" height="78" viewBox="0 0 190 78">
  <g id="Grupo_1100926" data-name="Grupo 1100926" transform="translate(-180.051 -388)">
    <rect id="Rect치ngulo_402869" data-name="Rect치ngulo 402869" width="190" height="78" transform="translate(180.051 388)" fill="#eaebfd"/>
    <rect id="Rect치ngulo_402870" data-name="Rect치ngulo 402870" width="142" height="53" transform="translate(204.051 401)" fill="#d6d8fc"/>
    <circle id="Elipse_11522" data-name="Elipse 11522" cx="22" cy="22" r="22" transform="translate(285.051 394)" fill="#9a9ef7"/>
    <g id="Elipse_11523" data-name="Elipse 11523" transform="translate(213.051 398)" fill="none" stroke="#ff9a09" stroke-width="1">
      <ellipse cx="37.5" cy="31" rx="37.5" ry="31" stroke="none"/>
      <ellipse cx="37.5" cy="31" rx="37" ry="30.5" fill="none"/>
    </g>
    <g id="Grupo_1100927" data-name="Grupo 1100927" transform="translate(244.051 397.549)">
      <g id="Grupo_1100890" data-name="Grupo 1100890" transform="translate(8.01 4.81)">
        <g id="Grupo_1100889" data-name="Grupo 1100889">
          <path id="Trazado_911259" data-name="Trazado 911259" d="M10.03,42.46V12.76a4.2,4.2,0,0,1,4.2-4.2H54.99a4.2,4.2,0,0,1,4.2,4.2v29.7Z" transform="translate(-9.55 -8.09)" fill="#fff"/>
          <path id="Trazado_911260" data-name="Trazado 911260" d="M59.18,42.95H10.03a.48.48,0,0,1-.48-.48V12.77a4.686,4.686,0,0,1,4.68-4.68H54.99a4.686,4.686,0,0,1,4.68,4.68v29.7a.5.5,0,0,1-.49.48Zm-48.67-.97H58.69V12.76a3.715,3.715,0,0,0-3.71-3.71H14.22a3.715,3.715,0,0,0-3.71,3.71Z" transform="translate(-9.55 -8.09)"/>
        </g>
      </g>
      <g id="Grupo_1100891" data-name="Grupo 1100891" transform="translate(27.31 47.05)">
        <path id="Trazado_911261" data-name="Trazado 911261" d="M29.33,50.8H39.87v8.8H29.33Z" transform="translate(-28.85 -50.33)" fill="#fff"/>
        <path id="Trazado_911262" data-name="Trazado 911262" d="M39.87,60.09H29.33a.48.48,0,0,1-.48-.48v-8.8a.48.48,0,0,1,.48-.48H39.87a.48.48,0,0,1,.48.48v8.8A.474.474,0,0,1,39.87,60.09Zm-10.06-.97h9.58V51.29H29.81Z" transform="translate(-28.85 -50.33)"/>
      </g>
      <g id="Grupo_1100899" data-name="Grupo 1100899" transform="translate(3.21)">
        <g id="Grupo_1100892" data-name="Grupo 1100892" transform="translate(0.48 0.49)">
          <path id="Trazado_911263" data-name="Trazado 911263" d="M57.98,3.77H11.23a6,6,0,0,0-6,6v32.7H63.98V9.76a6,6,0,0,0-6-5.99Z" transform="translate(-5.23 -3.77)" fill="#656d78"/>
        </g>
        <g id="Grupo_1100893" data-name="Grupo 1100893" transform="translate(0.48 37.03)">
          <path id="Trazado_911264" data-name="Trazado 911264" d="M5.23,40.31H63.98v2.16H5.23Z" transform="translate(-5.23 -40.31)" fill="#545c66"/>
        </g>
        <g id="Grupo_1100894" data-name="Grupo 1100894">
          <path id="Trazado_911265" data-name="Trazado 911265" d="M63.97,42.95H5.23a.48.48,0,0,1-.48-.48V9.76a6.491,6.491,0,0,1,6.48-6.48H57.98a6.491,6.491,0,0,1,6.48,6.48v32.7a.491.491,0,0,1-.49.49ZM5.71,41.98H63.49V9.76a5.514,5.514,0,0,0-5.51-5.51H11.23A5.514,5.514,0,0,0,5.72,9.76V41.98Z" transform="translate(-4.75 -3.28)"/>
        </g>
        <g id="Grupo_1100895" data-name="Grupo 1100895" transform="translate(4.8 4.81)">
          <path id="Trazado_911266" data-name="Trazado 911266" d="M10.03,42.46V12.76a4.2,4.2,0,0,1,4.2-4.2H54.99a4.2,4.2,0,0,1,4.2,4.2v29.7Z" transform="translate(-9.55 -8.09)" fill="#fff"/>
          <path id="Trazado_911267" data-name="Trazado 911267" d="M59.18,42.95H10.03a.48.48,0,0,1-.48-.48V12.77a4.686,4.686,0,0,1,4.68-4.68H54.99a4.686,4.686,0,0,1,4.68,4.68v29.7a.5.5,0,0,1-.49.48Zm-48.67-.97H58.69V12.76a3.715,3.715,0,0,0-3.71-3.71H14.22a3.715,3.715,0,0,0-3.71,3.71Z" transform="translate(-9.55 -8.09)"/>
        </g>
        <g id="Grupo_1100896" data-name="Grupo 1100896" transform="translate(0.48 39.18)">
          <path id="Trazado_911268" data-name="Trazado 911268" d="M5.23,42.46V44.8a6,6,0,0,0,6,6H57.98a6,6,0,0,0,6-6V42.46Z" transform="translate(-5.23 -42.46)" fill="#656d78"/>
        </g>
        <g id="Grupo_1100897" data-name="Grupo 1100897" transform="translate(0.47 39.37)">
          <path id="Trazado_911269" data-name="Trazado 911269" d="M63.98,42.65v2.16a6,6,0,0,1-6,6H11.22a6,6,0,0,1-6-6V42.65a6,6,0,0,0,6,6H57.97a6.007,6.007,0,0,0,6.01-6Z" transform="translate(-5.22 -42.65)" fill="#545c66"/>
        </g>
        <g id="Grupo_1100898" data-name="Grupo 1100898" transform="translate(0 38.71)">
          <path id="Trazado_911270" data-name="Trazado 911270" d="M57.98,51.29H11.23a6.491,6.491,0,0,1-6.48-6.48V42.47a.48.48,0,0,1,.48-.48H63.98a.48.48,0,0,1,.48.48v2.34A6.491,6.491,0,0,1,57.98,51.29ZM5.71,42.95v1.86a5.514,5.514,0,0,0,5.51,5.51H57.97a5.514,5.514,0,0,0,5.51-5.51V42.95Z" transform="translate(-4.75 -41.99)"/>
        </g>
      </g>
      <g id="Grupo_1100900" data-name="Grupo 1100900" transform="translate(27.31 47.05)">
        <path id="Trazado_911271" data-name="Trazado 911271" d="M29.33,50.8H39.87v8.8H29.33Z" transform="translate(-28.85 -50.33)" fill="#fff"/>
        <path id="Trazado_911272" data-name="Trazado 911272" d="M39.87,60.09H29.33a.48.48,0,0,1-.48-.48v-8.8a.48.48,0,0,1,.48-.48H39.87a.48.48,0,0,1,.48.48v8.8A.474.474,0,0,1,39.87,60.09Zm-10.06-.97h9.58V51.29H29.81Z" transform="translate(-28.85 -50.33)"/>
      </g>
      <g id="Grupo_1100901" data-name="Grupo 1100901" transform="translate(20.596 52.85)">
        <path id="Trazado_911273" data-name="Trazado 911273" d="M44.61,56.13H24.6a1.142,1.142,0,0,0-1.08.77L22.2,60.72a1.147,1.147,0,0,0,1.08,1.52H45.93a1.143,1.143,0,0,0,1.08-1.52L45.69,56.9A1.152,1.152,0,0,0,44.61,56.13Z" transform="translate(-22.136 -56.13)" fill="#656d78"/>
      </g>
      <g id="Grupo_1100902" data-name="Grupo 1100902" transform="translate(20.595 56.5)">
        <path id="Trazado_911274" data-name="Trazado 911274" d="M45.93,62.23H23.28a1.14,1.14,0,0,1-1.08-1.52l.32-.93a1.12,1.12,0,0,0,.76.29H45.93a1.12,1.12,0,0,0,.76-.29l.32.93a1.149,1.149,0,0,1-1.08,1.52Z" transform="translate(-22.135 -59.78)" fill="#545c66"/>
      </g>
      <g id="Grupo_1100903" data-name="Grupo 1100903" transform="translate(20.112 52.36)">
        <path id="Trazado_911275" data-name="Trazado 911275" d="M45.93,62.72H23.28a1.622,1.622,0,0,1-1.54-2.16l1.32-3.82a1.635,1.635,0,0,1,1.54-1.1H44.61a1.635,1.635,0,0,1,1.54,1.1l1.32,3.82a1.622,1.622,0,0,1-1.54,2.16ZM24.6,56.61a.659.659,0,0,0-.62.44l-1.32,3.82a.668.668,0,0,0,.63.88H45.94a.668.668,0,0,0,.63-.88l-1.32-3.82a.655.655,0,0,0-.62-.45H24.6Z" transform="translate(-21.652 -55.64)"/>
      </g>
      <g id="Grupo_1100904" data-name="Grupo 1100904" transform="translate(30.61 40.9)">
        <circle id="Elipse_11515" data-name="Elipse 11515" cx="1.96" cy="1.96" r="1.96" transform="translate(0.49 0.49)" fill="#fff"/>
        <path id="Trazado_911276" data-name="Trazado 911276" d="M34.6,49.08a2.45,2.45,0,1,1,2.45-2.45A2.454,2.454,0,0,1,34.6,49.08Zm0-3.93a1.48,1.48,0,1,0,1.48,1.48A1.477,1.477,0,0,0,34.6,45.15Z" transform="translate(-32.15 -44.18)"/>
      </g>
      <g id="Grupo_1100905" data-name="Grupo 1100905" transform="translate(0 9.91)">
        <path id="Trazado_911277" data-name="Trazado 911277" d="M10.65,38.81H4.81a2.791,2.791,0,0,1-2.79-2.79V16.46a2.791,2.791,0,0,1,2.79-2.79h5.84a2.791,2.791,0,0,1,2.79,2.79V36.01A2.793,2.793,0,0,1,10.65,38.81Z" transform="translate(-1.54 -13.19)" fill="#f4f6f8"/>
        <path id="Trazado_911278" data-name="Trazado 911278" d="M11.51,39.29H3.96a2.428,2.428,0,0,1-2.42-2.42V15.61a2.428,2.428,0,0,1,2.42-2.42h7.55a2.428,2.428,0,0,1,2.42,2.42V36.87A2.428,2.428,0,0,1,11.51,39.29ZM3.96,14.16a1.451,1.451,0,0,0-1.45,1.45V36.87a1.451,1.451,0,0,0,1.45,1.45h7.55a1.451,1.451,0,0,0,1.45-1.45V15.61a1.451,1.451,0,0,0-1.45-1.45Z" transform="translate(-1.54 -13.19)"/>
      </g>
      <g id="Grupo_1100906" data-name="Grupo 1100906" transform="translate(3.37 12.96)">
        <path id="Trazado_911279" data-name="Trazado 911279" d="M8.93,21.41H6.54A1.139,1.139,0,0,1,5.4,20.27V17.88a1.139,1.139,0,0,1,1.14-1.14H8.93a1.139,1.139,0,0,1,1.14,1.14v2.39A1.139,1.139,0,0,1,8.93,21.41Z" transform="translate(-4.91 -16.24)" fill="#fdcd56"/>
        <path id="Trazado_911280" data-name="Trazado 911280" d="M9.11,21.89H6.36a1.451,1.451,0,0,1-1.45-1.45V17.69a1.451,1.451,0,0,1,1.45-1.45H9.11a1.451,1.451,0,0,1,1.45,1.45v2.75A1.451,1.451,0,0,1,9.11,21.89ZM6.36,17.21a.48.48,0,0,0-.48.48v2.75a.48.48,0,0,0,.48.48H9.11a.48.48,0,0,0,.48-.48V17.69a.48.48,0,0,0-.48-.48Z" transform="translate(-4.91 -16.24)"/>
      </g>
      <g id="Grupo_1100907" data-name="Grupo 1100907" transform="translate(3.37 20.13)">
        <path id="Trazado_911281" data-name="Trazado 911281" d="M8.93,28.58H6.54A1.139,1.139,0,0,1,5.4,27.44V25.05a1.139,1.139,0,0,1,1.14-1.14H8.93a1.139,1.139,0,0,1,1.14,1.14v2.39A1.133,1.133,0,0,1,8.93,28.58Z" transform="translate(-4.91 -23.41)" fill="#8c9ffa"/>
        <path id="Trazado_911282" data-name="Trazado 911282" d="M9.11,29.06H6.36a1.451,1.451,0,0,1-1.45-1.45V24.86a1.451,1.451,0,0,1,1.45-1.45H9.11a1.451,1.451,0,0,1,1.45,1.45v2.75A1.451,1.451,0,0,1,9.11,29.06ZM6.36,24.38a.48.48,0,0,0-.48.48v2.75a.48.48,0,0,0,.48.48H9.11a.48.48,0,0,0,.48-.48V24.86a.48.48,0,0,0-.48-.48Z" transform="translate(-4.91 -23.41)"/>
      </g>
      <g id="Grupo_1100908" data-name="Grupo 1100908" transform="translate(3.37 27.31)">
        <path id="Trazado_911283" data-name="Trazado 911283" d="M8.93,35.76H6.54A1.139,1.139,0,0,1,5.4,34.62V32.23a1.139,1.139,0,0,1,1.14-1.14H8.93a1.139,1.139,0,0,1,1.14,1.14v2.39A1.139,1.139,0,0,1,8.93,35.76Z" transform="translate(-4.91 -30.59)" fill="#f76c82"/>
        <path id="Trazado_911284" data-name="Trazado 911284" d="M9.11,36.24H6.36a1.451,1.451,0,0,1-1.45-1.45V32.04a1.451,1.451,0,0,1,1.45-1.45H9.11a1.451,1.451,0,0,1,1.45,1.45v2.75A1.451,1.451,0,0,1,9.11,36.24ZM6.36,31.56a.48.48,0,0,0-.48.48v2.75a.48.48,0,0,0,.48.48H9.11a.48.48,0,0,0,.48-.48V32.04a.48.48,0,0,0-.48-.48Z" transform="translate(-4.91 -30.59)"/>
      </g>
      <g id="Grupo_1100924" data-name="Grupo 1100924" transform="translate(19.67 10.12)">
        <g id="Grupo_1100909" data-name="Grupo 1100909" transform="translate(8.89 22.54)">
          <path id="Trazado_911285" data-name="Trazado 911285" d="M30.1,35.94h9.16a3.762,3.762,0,0,0-.53,1.94h-8.1a3.736,3.736,0,0,0-.53-1.94Z" transform="translate(-30.1 -35.94)" fill="#b9bec6"/>
        </g>
        <g id="Grupo_1100917" data-name="Grupo 1100917">
          <g id="Grupo_1100910" data-name="Grupo 1100910" transform="translate(1.63 1.46)">
            <path id="Trazado_911286" data-name="Trazado 911286" d="M46.04,27.19a.48.48,0,0,1-.48-.48,10.88,10.88,0,0,0-21.76,0,.48.48,0,0,1-.96,0,11.85,11.85,0,1,1,23.7,0A.5.5,0,0,1,46.04,27.19Z" transform="translate(-22.84 -14.86)"/>
          </g>
          <g id="Grupo_1100911" data-name="Grupo 1100911" transform="translate(1.63 1.47)">
            <path id="Trazado_911287" data-name="Trazado 911287" d="M46.04,15.83H23.32a.48.48,0,0,1-.48-.48.487.487,0,0,1,.48-.48H46.04a.48.48,0,0,1,0,.96Z" transform="translate(-22.84 -14.87)"/>
          </g>
          <g id="Grupo_1100912" data-name="Grupo 1100912" transform="translate(22.68)">
            <circle id="Elipse_11516" data-name="Elipse 11516" cx="1.47" cy="1.47" r="1.47" transform="translate(0.48 0.48)" fill="#f76c82"/>
            <path id="Trazado_911288" data-name="Trazado 911288" d="M45.84,17.3a1.95,1.95,0,1,1,1.95-1.95A1.953,1.953,0,0,1,45.84,17.3Zm0-2.94a.985.985,0,1,0,.99.99A1,1,0,0,0,45.84,14.36Z" transform="translate(-43.89 -13.4)"/>
          </g>
          <g id="Grupo_1100913" data-name="Grupo 1100913" transform="translate(22.88 11.36)">
            <circle id="Elipse_11517" data-name="Elipse 11517" cx="1.47" cy="1.47" r="1.47" transform="translate(0.48 0.48)" fill="#fdcd56"/>
            <path id="Trazado_911289" data-name="Trazado 911289" d="M46.04,28.66a1.95,1.95,0,1,1,1.95-1.95A1.953,1.953,0,0,1,46.04,28.66Zm0-2.94a.985.985,0,1,0,.99.99A.984.984,0,0,0,46.04,25.72Z" transform="translate(-44.09 -24.76)"/>
          </g>
          <g id="Grupo_1100914" data-name="Grupo 1100914" transform="translate(0 11.36)">
            <circle id="Elipse_11518" data-name="Elipse 11518" cx="1.47" cy="1.47" r="1.47" transform="translate(0.48 0.48)" fill="#fdcd56"/>
            <path id="Trazado_911290" data-name="Trazado 911290" d="M23.16,28.66a1.95,1.95,0,1,1,1.95-1.95A1.953,1.953,0,0,1,23.16,28.66Zm0-2.94a.985.985,0,1,0,.99.99A.992.992,0,0,0,23.16,25.72Z" transform="translate(-21.21 -24.76)"/>
          </g>
          <g id="Grupo_1100915" data-name="Grupo 1100915" transform="translate(0.16)">
            <circle id="Elipse_11519" data-name="Elipse 11519" cx="1.47" cy="1.47" r="1.47" transform="translate(0.48 0.48)" fill="#f76c82"/>
            <path id="Trazado_911291" data-name="Trazado 911291" d="M23.32,17.3a1.95,1.95,0,1,1,1.95-1.95A1.953,1.953,0,0,1,23.32,17.3Zm0-2.94a.985.985,0,1,0,0,1.97.985.985,0,0,0,0-1.97Z" transform="translate(-21.37 -13.4)"/>
          </g>
          <g id="Grupo_1100916" data-name="Grupo 1100916" transform="translate(11.52)">
            <circle id="Elipse_11520" data-name="Elipse 11520" cx="1.47" cy="1.47" r="1.47" transform="translate(0.48 0.48)" fill="#8c9ffa"/>
            <path id="Trazado_911292" data-name="Trazado 911292" d="M34.68,17.3a1.95,1.95,0,1,1,1.95-1.95A1.953,1.953,0,0,1,34.68,17.3Zm0-2.94a.985.985,0,1,0,.99.99A.992.992,0,0,0,34.68,14.36Z" transform="translate(-32.73 -13.4)"/>
          </g>
        </g>
        <g id="Grupo_1100918" data-name="Grupo 1100918" transform="translate(5.16 24.47)">
          <path id="Trazado_911293" data-name="Trazado 911293" d="M42.83,42.46H26.37V40.11a2.236,2.236,0,0,1,2.24-2.24H40.59a2.236,2.236,0,0,1,2.24,2.24Z" transform="translate(-26.37 -37.87)" fill="#f76c82"/>
        </g>
        <g id="Grupo_1100919" data-name="Grupo 1100919" transform="translate(4.68 24)">
          <path id="Trazado_911294" data-name="Trazado 911294" d="M42.83,42.95H26.37a.48.48,0,0,1-.48-.48V39.82a2.428,2.428,0,0,1,2.42-2.42H40.9a2.428,2.428,0,0,1,2.42,2.42v2.65a.489.489,0,0,1-.49.48Zm-15.98-.97h15.5V39.81a1.451,1.451,0,0,0-1.45-1.45H28.3a1.451,1.451,0,0,0-1.45,1.45Z" transform="translate(-25.89 -37.4)"/>
        </g>
        <g id="Grupo_1100920" data-name="Grupo 1100920" transform="translate(5.64 5.95)">
          <path id="Trazado_911295" data-name="Trazado 911295" d="M42.51,34.1a3.777,3.777,0,0,0-3.78,3.78h-8.1a3.783,3.783,0,0,0-3.78-3.78l7.83-14.75Z" transform="translate(-26.85 -19.35)" fill="#d7dadf"/>
        </g>
        <g id="Grupo_1100921" data-name="Grupo 1100921" transform="translate(5.171 5.49)">
          <path id="Trazado_911296" data-name="Trazado 911296" d="M38.73,38.36h-8.1a.48.48,0,0,1-.48-.48,3.293,3.293,0,0,0-3.29-3.29.474.474,0,0,1-.41-.23.484.484,0,0,1-.01-.48l7.83-14.75a.5.5,0,0,1,.85,0l7.83,14.75a.51.51,0,0,1-.01.48.477.477,0,0,1-.41.23,3.293,3.293,0,0,0-3.29,3.29A.521.521,0,0,1,38.73,38.36Zm-7.64-.97h7.19a4.278,4.278,0,0,1,3.47-3.71l-7.06-13.3-7.06,13.3A4.279,4.279,0,0,1,31.09,37.39Z" transform="translate(-26.381 -18.89)" fill="#000102"/>
        </g>
        <g id="Grupo_1100922" data-name="Grupo 1100922" transform="translate(12.99 5.48)">
          <path id="Trazado_911297" data-name="Trazado 911297" d="M34.68,29.1a.48.48,0,0,1-.48-.48V19.36a.48.48,0,0,1,.96,0v9.26A.474.474,0,0,1,34.68,29.1Z" transform="translate(-34.2 -18.88)" fill="#000102"/>
        </g>
        <g id="Grupo_1100923" data-name="Grupo 1100923" transform="translate(11.56 14.73)">
          <circle id="Elipse_11521" data-name="Elipse 11521" cx="1.43" cy="1.43" r="1.43" transform="translate(0.48 0.48)" fill="#656d78"/>
          <path id="Trazado_911298" data-name="Trazado 911298" d="M34.68,31.95a1.91,1.91,0,1,1,1.91-1.91A1.916,1.916,0,0,1,34.68,31.95Zm0-2.85a.94.94,0,1,0,.94.94A.939.939,0,0,0,34.68,29.1Z" transform="translate(-32.77 -28.13)" fill="#000102"/>
        </g>
      </g>
    </g>
    <circle id="Elipse_11524" data-name="Elipse 11524" cx="10.5" cy="10.5" r="10.5" transform="translate(213.051 438)" fill="#9a9ef7"/>
  </g>
</svg>
