<svg xmlns="http://www.w3.org/2000/svg" width="25" height="25" viewBox="0 0 25 25">
  <g id="Grupo_1101830" data-name="Grupo 1101830" transform="translate(-824.051 -1113)">
    <g id="Grupo_1101718" data-name="Grupo 1101718" transform="translate(601 -150)">
      <circle id="Elipse_11724" data-name="Elipse 11724" cx="12.5" cy="12.5" r="12.5" transform="translate(223.051 1263)" fill="#ff7650"/>
    </g>
    <path id="Trazado_916081" data-name="Trazado 916081" d="M1.016,15V3.625H5a5.232,5.232,0,0,1,3.141.793,2.712,2.712,0,0,1,1.07,2.324,2.57,2.57,0,0,1-.43,1.473,2.482,2.482,0,0,1-1.2.934,2.4,2.4,0,0,1,1.379.883,2.61,2.61,0,0,1,.5,1.625,3,3,0,0,1-1.047,2.484A4.713,4.713,0,0,1,5.438,15Zm2.344-4.953v3.07H5.367a1.938,1.938,0,0,0,1.293-.395,1.353,1.353,0,0,0,.465-1.09,1.428,1.428,0,0,0-1.617-1.586Zm0-1.656H5.094q1.773-.031,1.773-1.414a1.307,1.307,0,0,0-.449-1.113A2.363,2.363,0,0,0,5,5.523H3.359Z" transform="translate(832.051 1116)" fill="red"/>
  </g>
</svg>
