<svg xmlns="http://www.w3.org/2000/svg" width="25" height="25" viewBox="0 0 25 25">
  <g id="Grupo_1101831" data-name="Grupo 1101831" transform="translate(-824.051 -1189)">
    <g id="Grupo_1101719" data-name="Grupo 1101719" transform="translate(601 -74)">
      <circle id="Elipse_11724" data-name="Elipse 11724" cx="12.5" cy="12.5" r="12.5" transform="translate(223.051 1263)" fill="#ff7650"/>
    </g>
    <path id="Trazado_916082" data-name="Trazado 916082" d="M9.945,11.211A4.025,4.025,0,0,1,8.59,14.1a4.76,4.76,0,0,1-3.223,1.055,4.28,4.28,0,0,1-3.441-1.473A6.038,6.038,0,0,1,.672,9.641v-.7A6.819,6.819,0,0,1,1.25,6.055,4.332,4.332,0,0,1,2.9,4.137a4.629,4.629,0,0,1,2.5-.668A4.637,4.637,0,0,1,8.57,4.523,4.326,4.326,0,0,1,9.961,7.484H7.617A2.376,2.376,0,0,0,7,5.887a2.271,2.271,0,0,0-1.605-.5,1.991,1.991,0,0,0-1.754.84,4.707,4.707,0,0,0-.6,2.605V9.7a5.038,5.038,0,0,0,.559,2.7,1.954,1.954,0,0,0,1.762.852,2.314,2.314,0,0,0,1.621-.5A2.241,2.241,0,0,0,7.6,11.211Z" transform="translate(832.051 1192)" fill="red"/>
  </g>
</svg>
