<svg xmlns="http://www.w3.org/2000/svg" width="25" height="25" viewBox="0 0 25 25">
  <g id="Grupo_1101835" data-name="Grupo 1101835" transform="translate(-824.051 -1500)">
    <g id="Grupo_1101723" data-name="Grupo 1101723" transform="translate(601 237)">
      <circle id="Elipse_11724" data-name="Elipse 11724" cx="12.5" cy="12.5" r="12.5" transform="translate(223.051 1263)" fill="#ff7650"/>
    </g>
    <path id="Trazado_916086" data-name="Trazado 916086" d="M10.016,13.563a4.068,4.068,0,0,1-1.789,1.176,7.492,7.492,0,0,1-2.562.418,5.076,5.076,0,0,1-2.59-.645,4.3,4.3,0,0,1-1.719-1.871A6.585,6.585,0,0,1,.734,9.758V8.984a6.994,6.994,0,0,1,.574-2.949A4.248,4.248,0,0,1,2.965,4.129,4.771,4.771,0,0,1,5.5,3.469a4.751,4.751,0,0,1,3.164.965,4.123,4.123,0,0,1,1.352,2.809H7.734a2.268,2.268,0,0,0-.691-1.43A2.208,2.208,0,0,0,5.57,5.359a2.078,2.078,0,0,0-1.82.9A4.724,4.724,0,0,0,3.117,8.93v.727a4.5,4.5,0,0,0,.68,2.7,2.327,2.327,0,0,0,1.992.914,2.6,2.6,0,0,0,1.883-.562V10.75H5.539V9.023h4.477Z" transform="translate(832.051 1503)" fill="red"/>
  </g>
</svg>
